G75*
%MOIN*%
%OFA0B0*%
%FSLAX25Y25*%
%IPPOS*%
%LPD*%
%AMOC8*
5,1,8,0,0,1.08239X$1,22.5*
%
%ADD10C,0.00000*%
%ADD11R,0.03937X0.04331*%
%ADD12R,0.04331X0.03937*%
%ADD13C,0.10000*%
%ADD14OC8,0.10000*%
%ADD15OC8,0.06600*%
%ADD16OC8,0.07400*%
%ADD17R,0.03150X0.03150*%
%ADD18R,0.02200X0.05000*%
%ADD19R,0.05000X0.02200*%
%ADD20R,0.02323X0.02795*%
%ADD21R,0.05402X0.02795*%
%ADD22R,0.15157X0.17795*%
%ADD23R,0.12598X0.07087*%
%ADD24R,0.11024X0.11024*%
%ADD25R,0.00906X0.03150*%
%ADD26R,0.03150X0.00906*%
%ADD27R,0.07000X0.08000*%
%ADD28R,0.08000X0.08000*%
%ADD29C,0.08000*%
%ADD30C,0.02559*%
%ADD31C,0.00984*%
%ADD32C,0.03169*%
%ADD33C,0.01969*%
%ADD34C,0.09843*%
%ADD35C,0.05906*%
D10*
X0055502Y0019081D02*
X0055502Y0176562D01*
X0212982Y0176562D01*
X0212982Y0019081D01*
X0055502Y0019081D01*
X0062782Y0032861D02*
X0062784Y0033022D01*
X0062790Y0033182D01*
X0062800Y0033343D01*
X0062814Y0033503D01*
X0062832Y0033663D01*
X0062853Y0033822D01*
X0062879Y0033981D01*
X0062909Y0034139D01*
X0062942Y0034296D01*
X0062980Y0034453D01*
X0063021Y0034608D01*
X0063066Y0034762D01*
X0063115Y0034915D01*
X0063168Y0035067D01*
X0063224Y0035218D01*
X0063285Y0035367D01*
X0063348Y0035515D01*
X0063416Y0035661D01*
X0063487Y0035805D01*
X0063561Y0035947D01*
X0063639Y0036088D01*
X0063721Y0036226D01*
X0063806Y0036363D01*
X0063894Y0036497D01*
X0063986Y0036629D01*
X0064081Y0036759D01*
X0064179Y0036887D01*
X0064280Y0037012D01*
X0064384Y0037134D01*
X0064491Y0037254D01*
X0064601Y0037371D01*
X0064714Y0037486D01*
X0064830Y0037597D01*
X0064949Y0037706D01*
X0065070Y0037811D01*
X0065194Y0037914D01*
X0065320Y0038014D01*
X0065448Y0038110D01*
X0065579Y0038203D01*
X0065713Y0038293D01*
X0065848Y0038380D01*
X0065986Y0038463D01*
X0066125Y0038543D01*
X0066267Y0038619D01*
X0066410Y0038692D01*
X0066555Y0038761D01*
X0066702Y0038827D01*
X0066850Y0038889D01*
X0067000Y0038947D01*
X0067151Y0039002D01*
X0067304Y0039053D01*
X0067458Y0039100D01*
X0067613Y0039143D01*
X0067769Y0039182D01*
X0067925Y0039218D01*
X0068083Y0039249D01*
X0068241Y0039277D01*
X0068400Y0039301D01*
X0068560Y0039321D01*
X0068720Y0039337D01*
X0068880Y0039349D01*
X0069041Y0039357D01*
X0069202Y0039361D01*
X0069362Y0039361D01*
X0069523Y0039357D01*
X0069684Y0039349D01*
X0069844Y0039337D01*
X0070004Y0039321D01*
X0070164Y0039301D01*
X0070323Y0039277D01*
X0070481Y0039249D01*
X0070639Y0039218D01*
X0070795Y0039182D01*
X0070951Y0039143D01*
X0071106Y0039100D01*
X0071260Y0039053D01*
X0071413Y0039002D01*
X0071564Y0038947D01*
X0071714Y0038889D01*
X0071862Y0038827D01*
X0072009Y0038761D01*
X0072154Y0038692D01*
X0072297Y0038619D01*
X0072439Y0038543D01*
X0072578Y0038463D01*
X0072716Y0038380D01*
X0072851Y0038293D01*
X0072985Y0038203D01*
X0073116Y0038110D01*
X0073244Y0038014D01*
X0073370Y0037914D01*
X0073494Y0037811D01*
X0073615Y0037706D01*
X0073734Y0037597D01*
X0073850Y0037486D01*
X0073963Y0037371D01*
X0074073Y0037254D01*
X0074180Y0037134D01*
X0074284Y0037012D01*
X0074385Y0036887D01*
X0074483Y0036759D01*
X0074578Y0036629D01*
X0074670Y0036497D01*
X0074758Y0036363D01*
X0074843Y0036226D01*
X0074925Y0036088D01*
X0075003Y0035947D01*
X0075077Y0035805D01*
X0075148Y0035661D01*
X0075216Y0035515D01*
X0075279Y0035367D01*
X0075340Y0035218D01*
X0075396Y0035067D01*
X0075449Y0034915D01*
X0075498Y0034762D01*
X0075543Y0034608D01*
X0075584Y0034453D01*
X0075622Y0034296D01*
X0075655Y0034139D01*
X0075685Y0033981D01*
X0075711Y0033822D01*
X0075732Y0033663D01*
X0075750Y0033503D01*
X0075764Y0033343D01*
X0075774Y0033182D01*
X0075780Y0033022D01*
X0075782Y0032861D01*
X0075780Y0032700D01*
X0075774Y0032540D01*
X0075764Y0032379D01*
X0075750Y0032219D01*
X0075732Y0032059D01*
X0075711Y0031900D01*
X0075685Y0031741D01*
X0075655Y0031583D01*
X0075622Y0031426D01*
X0075584Y0031269D01*
X0075543Y0031114D01*
X0075498Y0030960D01*
X0075449Y0030807D01*
X0075396Y0030655D01*
X0075340Y0030504D01*
X0075279Y0030355D01*
X0075216Y0030207D01*
X0075148Y0030061D01*
X0075077Y0029917D01*
X0075003Y0029775D01*
X0074925Y0029634D01*
X0074843Y0029496D01*
X0074758Y0029359D01*
X0074670Y0029225D01*
X0074578Y0029093D01*
X0074483Y0028963D01*
X0074385Y0028835D01*
X0074284Y0028710D01*
X0074180Y0028588D01*
X0074073Y0028468D01*
X0073963Y0028351D01*
X0073850Y0028236D01*
X0073734Y0028125D01*
X0073615Y0028016D01*
X0073494Y0027911D01*
X0073370Y0027808D01*
X0073244Y0027708D01*
X0073116Y0027612D01*
X0072985Y0027519D01*
X0072851Y0027429D01*
X0072716Y0027342D01*
X0072578Y0027259D01*
X0072439Y0027179D01*
X0072297Y0027103D01*
X0072154Y0027030D01*
X0072009Y0026961D01*
X0071862Y0026895D01*
X0071714Y0026833D01*
X0071564Y0026775D01*
X0071413Y0026720D01*
X0071260Y0026669D01*
X0071106Y0026622D01*
X0070951Y0026579D01*
X0070795Y0026540D01*
X0070639Y0026504D01*
X0070481Y0026473D01*
X0070323Y0026445D01*
X0070164Y0026421D01*
X0070004Y0026401D01*
X0069844Y0026385D01*
X0069684Y0026373D01*
X0069523Y0026365D01*
X0069362Y0026361D01*
X0069202Y0026361D01*
X0069041Y0026365D01*
X0068880Y0026373D01*
X0068720Y0026385D01*
X0068560Y0026401D01*
X0068400Y0026421D01*
X0068241Y0026445D01*
X0068083Y0026473D01*
X0067925Y0026504D01*
X0067769Y0026540D01*
X0067613Y0026579D01*
X0067458Y0026622D01*
X0067304Y0026669D01*
X0067151Y0026720D01*
X0067000Y0026775D01*
X0066850Y0026833D01*
X0066702Y0026895D01*
X0066555Y0026961D01*
X0066410Y0027030D01*
X0066267Y0027103D01*
X0066125Y0027179D01*
X0065986Y0027259D01*
X0065848Y0027342D01*
X0065713Y0027429D01*
X0065579Y0027519D01*
X0065448Y0027612D01*
X0065320Y0027708D01*
X0065194Y0027808D01*
X0065070Y0027911D01*
X0064949Y0028016D01*
X0064830Y0028125D01*
X0064714Y0028236D01*
X0064601Y0028351D01*
X0064491Y0028468D01*
X0064384Y0028588D01*
X0064280Y0028710D01*
X0064179Y0028835D01*
X0064081Y0028963D01*
X0063986Y0029093D01*
X0063894Y0029225D01*
X0063806Y0029359D01*
X0063721Y0029496D01*
X0063639Y0029634D01*
X0063561Y0029775D01*
X0063487Y0029917D01*
X0063416Y0030061D01*
X0063348Y0030207D01*
X0063285Y0030355D01*
X0063224Y0030504D01*
X0063168Y0030655D01*
X0063115Y0030807D01*
X0063066Y0030960D01*
X0063021Y0031114D01*
X0062980Y0031269D01*
X0062942Y0031426D01*
X0062909Y0031583D01*
X0062879Y0031741D01*
X0062853Y0031900D01*
X0062832Y0032059D01*
X0062814Y0032219D01*
X0062800Y0032379D01*
X0062790Y0032540D01*
X0062784Y0032700D01*
X0062782Y0032861D01*
X0171049Y0032861D02*
X0171051Y0033022D01*
X0171057Y0033182D01*
X0171067Y0033343D01*
X0171081Y0033503D01*
X0171099Y0033663D01*
X0171120Y0033822D01*
X0171146Y0033981D01*
X0171176Y0034139D01*
X0171209Y0034296D01*
X0171247Y0034453D01*
X0171288Y0034608D01*
X0171333Y0034762D01*
X0171382Y0034915D01*
X0171435Y0035067D01*
X0171491Y0035218D01*
X0171552Y0035367D01*
X0171615Y0035515D01*
X0171683Y0035661D01*
X0171754Y0035805D01*
X0171828Y0035947D01*
X0171906Y0036088D01*
X0171988Y0036226D01*
X0172073Y0036363D01*
X0172161Y0036497D01*
X0172253Y0036629D01*
X0172348Y0036759D01*
X0172446Y0036887D01*
X0172547Y0037012D01*
X0172651Y0037134D01*
X0172758Y0037254D01*
X0172868Y0037371D01*
X0172981Y0037486D01*
X0173097Y0037597D01*
X0173216Y0037706D01*
X0173337Y0037811D01*
X0173461Y0037914D01*
X0173587Y0038014D01*
X0173715Y0038110D01*
X0173846Y0038203D01*
X0173980Y0038293D01*
X0174115Y0038380D01*
X0174253Y0038463D01*
X0174392Y0038543D01*
X0174534Y0038619D01*
X0174677Y0038692D01*
X0174822Y0038761D01*
X0174969Y0038827D01*
X0175117Y0038889D01*
X0175267Y0038947D01*
X0175418Y0039002D01*
X0175571Y0039053D01*
X0175725Y0039100D01*
X0175880Y0039143D01*
X0176036Y0039182D01*
X0176192Y0039218D01*
X0176350Y0039249D01*
X0176508Y0039277D01*
X0176667Y0039301D01*
X0176827Y0039321D01*
X0176987Y0039337D01*
X0177147Y0039349D01*
X0177308Y0039357D01*
X0177469Y0039361D01*
X0177629Y0039361D01*
X0177790Y0039357D01*
X0177951Y0039349D01*
X0178111Y0039337D01*
X0178271Y0039321D01*
X0178431Y0039301D01*
X0178590Y0039277D01*
X0178748Y0039249D01*
X0178906Y0039218D01*
X0179062Y0039182D01*
X0179218Y0039143D01*
X0179373Y0039100D01*
X0179527Y0039053D01*
X0179680Y0039002D01*
X0179831Y0038947D01*
X0179981Y0038889D01*
X0180129Y0038827D01*
X0180276Y0038761D01*
X0180421Y0038692D01*
X0180564Y0038619D01*
X0180706Y0038543D01*
X0180845Y0038463D01*
X0180983Y0038380D01*
X0181118Y0038293D01*
X0181252Y0038203D01*
X0181383Y0038110D01*
X0181511Y0038014D01*
X0181637Y0037914D01*
X0181761Y0037811D01*
X0181882Y0037706D01*
X0182001Y0037597D01*
X0182117Y0037486D01*
X0182230Y0037371D01*
X0182340Y0037254D01*
X0182447Y0037134D01*
X0182551Y0037012D01*
X0182652Y0036887D01*
X0182750Y0036759D01*
X0182845Y0036629D01*
X0182937Y0036497D01*
X0183025Y0036363D01*
X0183110Y0036226D01*
X0183192Y0036088D01*
X0183270Y0035947D01*
X0183344Y0035805D01*
X0183415Y0035661D01*
X0183483Y0035515D01*
X0183546Y0035367D01*
X0183607Y0035218D01*
X0183663Y0035067D01*
X0183716Y0034915D01*
X0183765Y0034762D01*
X0183810Y0034608D01*
X0183851Y0034453D01*
X0183889Y0034296D01*
X0183922Y0034139D01*
X0183952Y0033981D01*
X0183978Y0033822D01*
X0183999Y0033663D01*
X0184017Y0033503D01*
X0184031Y0033343D01*
X0184041Y0033182D01*
X0184047Y0033022D01*
X0184049Y0032861D01*
X0184047Y0032700D01*
X0184041Y0032540D01*
X0184031Y0032379D01*
X0184017Y0032219D01*
X0183999Y0032059D01*
X0183978Y0031900D01*
X0183952Y0031741D01*
X0183922Y0031583D01*
X0183889Y0031426D01*
X0183851Y0031269D01*
X0183810Y0031114D01*
X0183765Y0030960D01*
X0183716Y0030807D01*
X0183663Y0030655D01*
X0183607Y0030504D01*
X0183546Y0030355D01*
X0183483Y0030207D01*
X0183415Y0030061D01*
X0183344Y0029917D01*
X0183270Y0029775D01*
X0183192Y0029634D01*
X0183110Y0029496D01*
X0183025Y0029359D01*
X0182937Y0029225D01*
X0182845Y0029093D01*
X0182750Y0028963D01*
X0182652Y0028835D01*
X0182551Y0028710D01*
X0182447Y0028588D01*
X0182340Y0028468D01*
X0182230Y0028351D01*
X0182117Y0028236D01*
X0182001Y0028125D01*
X0181882Y0028016D01*
X0181761Y0027911D01*
X0181637Y0027808D01*
X0181511Y0027708D01*
X0181383Y0027612D01*
X0181252Y0027519D01*
X0181118Y0027429D01*
X0180983Y0027342D01*
X0180845Y0027259D01*
X0180706Y0027179D01*
X0180564Y0027103D01*
X0180421Y0027030D01*
X0180276Y0026961D01*
X0180129Y0026895D01*
X0179981Y0026833D01*
X0179831Y0026775D01*
X0179680Y0026720D01*
X0179527Y0026669D01*
X0179373Y0026622D01*
X0179218Y0026579D01*
X0179062Y0026540D01*
X0178906Y0026504D01*
X0178748Y0026473D01*
X0178590Y0026445D01*
X0178431Y0026421D01*
X0178271Y0026401D01*
X0178111Y0026385D01*
X0177951Y0026373D01*
X0177790Y0026365D01*
X0177629Y0026361D01*
X0177469Y0026361D01*
X0177308Y0026365D01*
X0177147Y0026373D01*
X0176987Y0026385D01*
X0176827Y0026401D01*
X0176667Y0026421D01*
X0176508Y0026445D01*
X0176350Y0026473D01*
X0176192Y0026504D01*
X0176036Y0026540D01*
X0175880Y0026579D01*
X0175725Y0026622D01*
X0175571Y0026669D01*
X0175418Y0026720D01*
X0175267Y0026775D01*
X0175117Y0026833D01*
X0174969Y0026895D01*
X0174822Y0026961D01*
X0174677Y0027030D01*
X0174534Y0027103D01*
X0174392Y0027179D01*
X0174253Y0027259D01*
X0174115Y0027342D01*
X0173980Y0027429D01*
X0173846Y0027519D01*
X0173715Y0027612D01*
X0173587Y0027708D01*
X0173461Y0027808D01*
X0173337Y0027911D01*
X0173216Y0028016D01*
X0173097Y0028125D01*
X0172981Y0028236D01*
X0172868Y0028351D01*
X0172758Y0028468D01*
X0172651Y0028588D01*
X0172547Y0028710D01*
X0172446Y0028835D01*
X0172348Y0028963D01*
X0172253Y0029093D01*
X0172161Y0029225D01*
X0172073Y0029359D01*
X0171988Y0029496D01*
X0171906Y0029634D01*
X0171828Y0029775D01*
X0171754Y0029917D01*
X0171683Y0030061D01*
X0171615Y0030207D01*
X0171552Y0030355D01*
X0171491Y0030504D01*
X0171435Y0030655D01*
X0171382Y0030807D01*
X0171333Y0030960D01*
X0171288Y0031114D01*
X0171247Y0031269D01*
X0171209Y0031426D01*
X0171176Y0031583D01*
X0171146Y0031741D01*
X0171120Y0031900D01*
X0171099Y0032059D01*
X0171081Y0032219D01*
X0171067Y0032379D01*
X0171057Y0032540D01*
X0171051Y0032700D01*
X0171049Y0032861D01*
X0171049Y0162782D02*
X0171051Y0162943D01*
X0171057Y0163103D01*
X0171067Y0163264D01*
X0171081Y0163424D01*
X0171099Y0163584D01*
X0171120Y0163743D01*
X0171146Y0163902D01*
X0171176Y0164060D01*
X0171209Y0164217D01*
X0171247Y0164374D01*
X0171288Y0164529D01*
X0171333Y0164683D01*
X0171382Y0164836D01*
X0171435Y0164988D01*
X0171491Y0165139D01*
X0171552Y0165288D01*
X0171615Y0165436D01*
X0171683Y0165582D01*
X0171754Y0165726D01*
X0171828Y0165868D01*
X0171906Y0166009D01*
X0171988Y0166147D01*
X0172073Y0166284D01*
X0172161Y0166418D01*
X0172253Y0166550D01*
X0172348Y0166680D01*
X0172446Y0166808D01*
X0172547Y0166933D01*
X0172651Y0167055D01*
X0172758Y0167175D01*
X0172868Y0167292D01*
X0172981Y0167407D01*
X0173097Y0167518D01*
X0173216Y0167627D01*
X0173337Y0167732D01*
X0173461Y0167835D01*
X0173587Y0167935D01*
X0173715Y0168031D01*
X0173846Y0168124D01*
X0173980Y0168214D01*
X0174115Y0168301D01*
X0174253Y0168384D01*
X0174392Y0168464D01*
X0174534Y0168540D01*
X0174677Y0168613D01*
X0174822Y0168682D01*
X0174969Y0168748D01*
X0175117Y0168810D01*
X0175267Y0168868D01*
X0175418Y0168923D01*
X0175571Y0168974D01*
X0175725Y0169021D01*
X0175880Y0169064D01*
X0176036Y0169103D01*
X0176192Y0169139D01*
X0176350Y0169170D01*
X0176508Y0169198D01*
X0176667Y0169222D01*
X0176827Y0169242D01*
X0176987Y0169258D01*
X0177147Y0169270D01*
X0177308Y0169278D01*
X0177469Y0169282D01*
X0177629Y0169282D01*
X0177790Y0169278D01*
X0177951Y0169270D01*
X0178111Y0169258D01*
X0178271Y0169242D01*
X0178431Y0169222D01*
X0178590Y0169198D01*
X0178748Y0169170D01*
X0178906Y0169139D01*
X0179062Y0169103D01*
X0179218Y0169064D01*
X0179373Y0169021D01*
X0179527Y0168974D01*
X0179680Y0168923D01*
X0179831Y0168868D01*
X0179981Y0168810D01*
X0180129Y0168748D01*
X0180276Y0168682D01*
X0180421Y0168613D01*
X0180564Y0168540D01*
X0180706Y0168464D01*
X0180845Y0168384D01*
X0180983Y0168301D01*
X0181118Y0168214D01*
X0181252Y0168124D01*
X0181383Y0168031D01*
X0181511Y0167935D01*
X0181637Y0167835D01*
X0181761Y0167732D01*
X0181882Y0167627D01*
X0182001Y0167518D01*
X0182117Y0167407D01*
X0182230Y0167292D01*
X0182340Y0167175D01*
X0182447Y0167055D01*
X0182551Y0166933D01*
X0182652Y0166808D01*
X0182750Y0166680D01*
X0182845Y0166550D01*
X0182937Y0166418D01*
X0183025Y0166284D01*
X0183110Y0166147D01*
X0183192Y0166009D01*
X0183270Y0165868D01*
X0183344Y0165726D01*
X0183415Y0165582D01*
X0183483Y0165436D01*
X0183546Y0165288D01*
X0183607Y0165139D01*
X0183663Y0164988D01*
X0183716Y0164836D01*
X0183765Y0164683D01*
X0183810Y0164529D01*
X0183851Y0164374D01*
X0183889Y0164217D01*
X0183922Y0164060D01*
X0183952Y0163902D01*
X0183978Y0163743D01*
X0183999Y0163584D01*
X0184017Y0163424D01*
X0184031Y0163264D01*
X0184041Y0163103D01*
X0184047Y0162943D01*
X0184049Y0162782D01*
X0184047Y0162621D01*
X0184041Y0162461D01*
X0184031Y0162300D01*
X0184017Y0162140D01*
X0183999Y0161980D01*
X0183978Y0161821D01*
X0183952Y0161662D01*
X0183922Y0161504D01*
X0183889Y0161347D01*
X0183851Y0161190D01*
X0183810Y0161035D01*
X0183765Y0160881D01*
X0183716Y0160728D01*
X0183663Y0160576D01*
X0183607Y0160425D01*
X0183546Y0160276D01*
X0183483Y0160128D01*
X0183415Y0159982D01*
X0183344Y0159838D01*
X0183270Y0159696D01*
X0183192Y0159555D01*
X0183110Y0159417D01*
X0183025Y0159280D01*
X0182937Y0159146D01*
X0182845Y0159014D01*
X0182750Y0158884D01*
X0182652Y0158756D01*
X0182551Y0158631D01*
X0182447Y0158509D01*
X0182340Y0158389D01*
X0182230Y0158272D01*
X0182117Y0158157D01*
X0182001Y0158046D01*
X0181882Y0157937D01*
X0181761Y0157832D01*
X0181637Y0157729D01*
X0181511Y0157629D01*
X0181383Y0157533D01*
X0181252Y0157440D01*
X0181118Y0157350D01*
X0180983Y0157263D01*
X0180845Y0157180D01*
X0180706Y0157100D01*
X0180564Y0157024D01*
X0180421Y0156951D01*
X0180276Y0156882D01*
X0180129Y0156816D01*
X0179981Y0156754D01*
X0179831Y0156696D01*
X0179680Y0156641D01*
X0179527Y0156590D01*
X0179373Y0156543D01*
X0179218Y0156500D01*
X0179062Y0156461D01*
X0178906Y0156425D01*
X0178748Y0156394D01*
X0178590Y0156366D01*
X0178431Y0156342D01*
X0178271Y0156322D01*
X0178111Y0156306D01*
X0177951Y0156294D01*
X0177790Y0156286D01*
X0177629Y0156282D01*
X0177469Y0156282D01*
X0177308Y0156286D01*
X0177147Y0156294D01*
X0176987Y0156306D01*
X0176827Y0156322D01*
X0176667Y0156342D01*
X0176508Y0156366D01*
X0176350Y0156394D01*
X0176192Y0156425D01*
X0176036Y0156461D01*
X0175880Y0156500D01*
X0175725Y0156543D01*
X0175571Y0156590D01*
X0175418Y0156641D01*
X0175267Y0156696D01*
X0175117Y0156754D01*
X0174969Y0156816D01*
X0174822Y0156882D01*
X0174677Y0156951D01*
X0174534Y0157024D01*
X0174392Y0157100D01*
X0174253Y0157180D01*
X0174115Y0157263D01*
X0173980Y0157350D01*
X0173846Y0157440D01*
X0173715Y0157533D01*
X0173587Y0157629D01*
X0173461Y0157729D01*
X0173337Y0157832D01*
X0173216Y0157937D01*
X0173097Y0158046D01*
X0172981Y0158157D01*
X0172868Y0158272D01*
X0172758Y0158389D01*
X0172651Y0158509D01*
X0172547Y0158631D01*
X0172446Y0158756D01*
X0172348Y0158884D01*
X0172253Y0159014D01*
X0172161Y0159146D01*
X0172073Y0159280D01*
X0171988Y0159417D01*
X0171906Y0159555D01*
X0171828Y0159696D01*
X0171754Y0159838D01*
X0171683Y0159982D01*
X0171615Y0160128D01*
X0171552Y0160276D01*
X0171491Y0160425D01*
X0171435Y0160576D01*
X0171382Y0160728D01*
X0171333Y0160881D01*
X0171288Y0161035D01*
X0171247Y0161190D01*
X0171209Y0161347D01*
X0171176Y0161504D01*
X0171146Y0161662D01*
X0171120Y0161821D01*
X0171099Y0161980D01*
X0171081Y0162140D01*
X0171067Y0162300D01*
X0171057Y0162461D01*
X0171051Y0162621D01*
X0171049Y0162782D01*
X0062782Y0162782D02*
X0062784Y0162943D01*
X0062790Y0163103D01*
X0062800Y0163264D01*
X0062814Y0163424D01*
X0062832Y0163584D01*
X0062853Y0163743D01*
X0062879Y0163902D01*
X0062909Y0164060D01*
X0062942Y0164217D01*
X0062980Y0164374D01*
X0063021Y0164529D01*
X0063066Y0164683D01*
X0063115Y0164836D01*
X0063168Y0164988D01*
X0063224Y0165139D01*
X0063285Y0165288D01*
X0063348Y0165436D01*
X0063416Y0165582D01*
X0063487Y0165726D01*
X0063561Y0165868D01*
X0063639Y0166009D01*
X0063721Y0166147D01*
X0063806Y0166284D01*
X0063894Y0166418D01*
X0063986Y0166550D01*
X0064081Y0166680D01*
X0064179Y0166808D01*
X0064280Y0166933D01*
X0064384Y0167055D01*
X0064491Y0167175D01*
X0064601Y0167292D01*
X0064714Y0167407D01*
X0064830Y0167518D01*
X0064949Y0167627D01*
X0065070Y0167732D01*
X0065194Y0167835D01*
X0065320Y0167935D01*
X0065448Y0168031D01*
X0065579Y0168124D01*
X0065713Y0168214D01*
X0065848Y0168301D01*
X0065986Y0168384D01*
X0066125Y0168464D01*
X0066267Y0168540D01*
X0066410Y0168613D01*
X0066555Y0168682D01*
X0066702Y0168748D01*
X0066850Y0168810D01*
X0067000Y0168868D01*
X0067151Y0168923D01*
X0067304Y0168974D01*
X0067458Y0169021D01*
X0067613Y0169064D01*
X0067769Y0169103D01*
X0067925Y0169139D01*
X0068083Y0169170D01*
X0068241Y0169198D01*
X0068400Y0169222D01*
X0068560Y0169242D01*
X0068720Y0169258D01*
X0068880Y0169270D01*
X0069041Y0169278D01*
X0069202Y0169282D01*
X0069362Y0169282D01*
X0069523Y0169278D01*
X0069684Y0169270D01*
X0069844Y0169258D01*
X0070004Y0169242D01*
X0070164Y0169222D01*
X0070323Y0169198D01*
X0070481Y0169170D01*
X0070639Y0169139D01*
X0070795Y0169103D01*
X0070951Y0169064D01*
X0071106Y0169021D01*
X0071260Y0168974D01*
X0071413Y0168923D01*
X0071564Y0168868D01*
X0071714Y0168810D01*
X0071862Y0168748D01*
X0072009Y0168682D01*
X0072154Y0168613D01*
X0072297Y0168540D01*
X0072439Y0168464D01*
X0072578Y0168384D01*
X0072716Y0168301D01*
X0072851Y0168214D01*
X0072985Y0168124D01*
X0073116Y0168031D01*
X0073244Y0167935D01*
X0073370Y0167835D01*
X0073494Y0167732D01*
X0073615Y0167627D01*
X0073734Y0167518D01*
X0073850Y0167407D01*
X0073963Y0167292D01*
X0074073Y0167175D01*
X0074180Y0167055D01*
X0074284Y0166933D01*
X0074385Y0166808D01*
X0074483Y0166680D01*
X0074578Y0166550D01*
X0074670Y0166418D01*
X0074758Y0166284D01*
X0074843Y0166147D01*
X0074925Y0166009D01*
X0075003Y0165868D01*
X0075077Y0165726D01*
X0075148Y0165582D01*
X0075216Y0165436D01*
X0075279Y0165288D01*
X0075340Y0165139D01*
X0075396Y0164988D01*
X0075449Y0164836D01*
X0075498Y0164683D01*
X0075543Y0164529D01*
X0075584Y0164374D01*
X0075622Y0164217D01*
X0075655Y0164060D01*
X0075685Y0163902D01*
X0075711Y0163743D01*
X0075732Y0163584D01*
X0075750Y0163424D01*
X0075764Y0163264D01*
X0075774Y0163103D01*
X0075780Y0162943D01*
X0075782Y0162782D01*
X0075780Y0162621D01*
X0075774Y0162461D01*
X0075764Y0162300D01*
X0075750Y0162140D01*
X0075732Y0161980D01*
X0075711Y0161821D01*
X0075685Y0161662D01*
X0075655Y0161504D01*
X0075622Y0161347D01*
X0075584Y0161190D01*
X0075543Y0161035D01*
X0075498Y0160881D01*
X0075449Y0160728D01*
X0075396Y0160576D01*
X0075340Y0160425D01*
X0075279Y0160276D01*
X0075216Y0160128D01*
X0075148Y0159982D01*
X0075077Y0159838D01*
X0075003Y0159696D01*
X0074925Y0159555D01*
X0074843Y0159417D01*
X0074758Y0159280D01*
X0074670Y0159146D01*
X0074578Y0159014D01*
X0074483Y0158884D01*
X0074385Y0158756D01*
X0074284Y0158631D01*
X0074180Y0158509D01*
X0074073Y0158389D01*
X0073963Y0158272D01*
X0073850Y0158157D01*
X0073734Y0158046D01*
X0073615Y0157937D01*
X0073494Y0157832D01*
X0073370Y0157729D01*
X0073244Y0157629D01*
X0073116Y0157533D01*
X0072985Y0157440D01*
X0072851Y0157350D01*
X0072716Y0157263D01*
X0072578Y0157180D01*
X0072439Y0157100D01*
X0072297Y0157024D01*
X0072154Y0156951D01*
X0072009Y0156882D01*
X0071862Y0156816D01*
X0071714Y0156754D01*
X0071564Y0156696D01*
X0071413Y0156641D01*
X0071260Y0156590D01*
X0071106Y0156543D01*
X0070951Y0156500D01*
X0070795Y0156461D01*
X0070639Y0156425D01*
X0070481Y0156394D01*
X0070323Y0156366D01*
X0070164Y0156342D01*
X0070004Y0156322D01*
X0069844Y0156306D01*
X0069684Y0156294D01*
X0069523Y0156286D01*
X0069362Y0156282D01*
X0069202Y0156282D01*
X0069041Y0156286D01*
X0068880Y0156294D01*
X0068720Y0156306D01*
X0068560Y0156322D01*
X0068400Y0156342D01*
X0068241Y0156366D01*
X0068083Y0156394D01*
X0067925Y0156425D01*
X0067769Y0156461D01*
X0067613Y0156500D01*
X0067458Y0156543D01*
X0067304Y0156590D01*
X0067151Y0156641D01*
X0067000Y0156696D01*
X0066850Y0156754D01*
X0066702Y0156816D01*
X0066555Y0156882D01*
X0066410Y0156951D01*
X0066267Y0157024D01*
X0066125Y0157100D01*
X0065986Y0157180D01*
X0065848Y0157263D01*
X0065713Y0157350D01*
X0065579Y0157440D01*
X0065448Y0157533D01*
X0065320Y0157629D01*
X0065194Y0157729D01*
X0065070Y0157832D01*
X0064949Y0157937D01*
X0064830Y0158046D01*
X0064714Y0158157D01*
X0064601Y0158272D01*
X0064491Y0158389D01*
X0064384Y0158509D01*
X0064280Y0158631D01*
X0064179Y0158756D01*
X0064081Y0158884D01*
X0063986Y0159014D01*
X0063894Y0159146D01*
X0063806Y0159280D01*
X0063721Y0159417D01*
X0063639Y0159555D01*
X0063561Y0159696D01*
X0063487Y0159838D01*
X0063416Y0159982D01*
X0063348Y0160128D01*
X0063285Y0160276D01*
X0063224Y0160425D01*
X0063168Y0160576D01*
X0063115Y0160728D01*
X0063066Y0160881D01*
X0063021Y0161035D01*
X0062980Y0161190D01*
X0062942Y0161347D01*
X0062909Y0161504D01*
X0062879Y0161662D01*
X0062853Y0161821D01*
X0062832Y0161980D01*
X0062814Y0162140D01*
X0062800Y0162300D01*
X0062790Y0162461D01*
X0062784Y0162621D01*
X0062782Y0162782D01*
D11*
X0124400Y0134633D03*
X0124400Y0127940D03*
X0155896Y0127940D03*
X0155896Y0134633D03*
X0161801Y0139751D03*
X0161801Y0146444D03*
X0169675Y0146444D03*
X0169675Y0139751D03*
X0182077Y0139160D03*
X0188770Y0139160D03*
X0188770Y0147034D03*
X0182077Y0147034D03*
X0193888Y0115538D03*
X0200581Y0115538D03*
X0161801Y0075577D03*
X0153927Y0075577D03*
X0153927Y0068885D03*
X0161801Y0068885D03*
X0178140Y0074199D03*
X0184833Y0074199D03*
X0163179Y0048609D03*
X0156486Y0048609D03*
X0159242Y0032861D03*
X0152549Y0032861D03*
X0152549Y0024987D03*
X0159242Y0024987D03*
D12*
X0143494Y0032861D03*
X0136801Y0032861D03*
X0131683Y0032861D03*
X0124990Y0032861D03*
X0124990Y0024987D03*
X0131683Y0024987D03*
X0156486Y0040735D03*
X0163179Y0040735D03*
X0163179Y0056483D03*
X0156486Y0056483D03*
X0146053Y0068885D03*
X0146053Y0075577D03*
X0185423Y0098412D03*
X0185423Y0105105D03*
X0185423Y0110223D03*
X0185423Y0116916D03*
X0185423Y0122034D03*
X0185423Y0128727D03*
X0169675Y0127940D03*
X0169675Y0134633D03*
X0161801Y0151562D03*
X0161801Y0158255D03*
X0132274Y0118885D03*
X0132274Y0112192D03*
D13*
X0140148Y0146877D03*
X0102746Y0146877D03*
D14*
X0102746Y0166877D03*
X0140148Y0166877D03*
D15*
X0199203Y0166719D03*
X0199203Y0158845D03*
X0199203Y0150971D03*
X0199203Y0143097D03*
X0199203Y0101759D03*
X0199203Y0093885D03*
X0199203Y0086010D03*
X0199203Y0078136D03*
X0199203Y0070262D03*
X0199203Y0062388D03*
D16*
X0195266Y0046640D03*
X0205266Y0046640D03*
X0205266Y0036640D03*
X0195266Y0036640D03*
X0195266Y0026640D03*
X0205266Y0026640D03*
D17*
X0184439Y0068294D03*
X0178534Y0068294D03*
X0161801Y0163766D03*
X0161801Y0169672D03*
D18*
X0161408Y0118659D03*
X0164557Y0118659D03*
X0167707Y0118659D03*
X0170856Y0118659D03*
X0158258Y0118659D03*
X0155108Y0118659D03*
X0151959Y0118659D03*
X0148809Y0118659D03*
X0148809Y0084859D03*
X0151959Y0084859D03*
X0155108Y0084859D03*
X0158258Y0084859D03*
X0161408Y0084859D03*
X0164557Y0084859D03*
X0167707Y0084859D03*
X0170856Y0084859D03*
D19*
X0176733Y0090735D03*
X0176733Y0093885D03*
X0176733Y0097034D03*
X0176733Y0100184D03*
X0176733Y0103333D03*
X0176733Y0106483D03*
X0176733Y0109633D03*
X0176733Y0112782D03*
X0142933Y0112782D03*
X0142933Y0109633D03*
X0142933Y0106483D03*
X0142933Y0103333D03*
X0142933Y0100184D03*
X0142933Y0097034D03*
X0142933Y0093885D03*
X0142933Y0090735D03*
D20*
X0115191Y0110007D03*
X0115191Y0115007D03*
X0115191Y0120007D03*
X0115191Y0125007D03*
X0090301Y0101385D03*
X0090301Y0096385D03*
X0090301Y0091385D03*
X0090301Y0086385D03*
X0090301Y0077762D03*
X0090301Y0072762D03*
X0090301Y0067762D03*
X0090301Y0062762D03*
X0115191Y0054140D03*
X0115191Y0049140D03*
X0115191Y0044140D03*
X0115191Y0039140D03*
D21*
X0091841Y0039140D03*
X0091841Y0044140D03*
X0091841Y0049140D03*
X0091841Y0054140D03*
X0113652Y0062762D03*
X0113652Y0067762D03*
X0113652Y0072762D03*
X0113652Y0077762D03*
X0113652Y0086385D03*
X0113652Y0091385D03*
X0113652Y0096385D03*
X0113652Y0101385D03*
X0091841Y0110007D03*
X0091841Y0115007D03*
X0091841Y0120007D03*
X0091841Y0125007D03*
D22*
X0106451Y0117507D03*
X0099041Y0093885D03*
X0099041Y0070262D03*
X0106451Y0046640D03*
D23*
X0126368Y0071050D03*
X0126368Y0093097D03*
D24*
X0136211Y0052546D03*
D25*
X0137195Y0044770D03*
X0139163Y0044770D03*
X0141132Y0044770D03*
X0135226Y0044770D03*
X0133258Y0044770D03*
X0131289Y0044770D03*
X0131289Y0060322D03*
X0133258Y0060322D03*
X0135226Y0060322D03*
X0137195Y0060322D03*
X0139163Y0060322D03*
X0141132Y0060322D03*
D26*
X0143986Y0057467D03*
X0143986Y0055499D03*
X0143986Y0053530D03*
X0143986Y0051562D03*
X0143986Y0049593D03*
X0143986Y0047625D03*
X0128435Y0047625D03*
X0128435Y0049593D03*
X0128435Y0051562D03*
X0128435Y0053530D03*
X0128435Y0055499D03*
X0128435Y0057467D03*
D27*
X0131648Y0131286D03*
X0148648Y0131286D03*
D28*
X0071250Y0127349D03*
X0071250Y0074199D03*
D29*
X0071250Y0087979D03*
X0071250Y0141129D03*
D30*
X0191230Y0127349D02*
X0191230Y0127349D01*
X0194184Y0127349D01*
X0194184Y0127349D01*
X0191230Y0127349D01*
X0200285Y0123609D02*
X0200285Y0123609D01*
X0203239Y0123609D01*
X0203239Y0123609D01*
X0200285Y0123609D01*
X0200285Y0131089D02*
X0200285Y0131089D01*
X0203239Y0131089D01*
X0203239Y0131089D01*
X0200285Y0131089D01*
D31*
X0204616Y0131116D02*
X0189065Y0131116D01*
X0189065Y0131307D02*
X0189065Y0129081D01*
X0189669Y0129685D01*
X0190682Y0130105D01*
X0194731Y0130105D01*
X0195744Y0129685D01*
X0196519Y0128910D01*
X0196939Y0127897D01*
X0196939Y0126801D01*
X0196519Y0125788D01*
X0195744Y0125013D01*
X0195167Y0124774D01*
X0195167Y0122856D01*
X0197314Y0125003D01*
X0198006Y0125695D01*
X0198910Y0126070D01*
X0199024Y0126070D01*
X0199737Y0126365D01*
X0203786Y0126365D01*
X0204616Y0126021D01*
X0204616Y0157826D01*
X0203979Y0158463D01*
X0203979Y0156867D01*
X0202021Y0154908D01*
X0203979Y0152950D01*
X0203979Y0148993D01*
X0201181Y0146195D01*
X0197906Y0146195D01*
X0192215Y0140503D01*
X0192215Y0136383D01*
X0191350Y0135518D01*
X0187488Y0135518D01*
X0188018Y0134988D01*
X0188484Y0133863D01*
X0188484Y0132646D01*
X0188262Y0132110D01*
X0189065Y0131307D01*
X0188273Y0132099D02*
X0204616Y0132099D01*
X0204616Y0133082D02*
X0188484Y0133082D01*
X0188401Y0134065D02*
X0204616Y0134065D01*
X0204616Y0135047D02*
X0187959Y0135047D01*
X0191862Y0136030D02*
X0204616Y0136030D01*
X0204616Y0137013D02*
X0192215Y0137013D01*
X0192215Y0137996D02*
X0204616Y0137996D01*
X0204616Y0138978D02*
X0192215Y0138978D01*
X0192215Y0139961D02*
X0204616Y0139961D01*
X0204616Y0140944D02*
X0192656Y0140944D01*
X0193638Y0141927D02*
X0204616Y0141927D01*
X0204616Y0142910D02*
X0194621Y0142910D01*
X0195604Y0143892D02*
X0204616Y0143892D01*
X0204616Y0144875D02*
X0196587Y0144875D01*
X0197569Y0145858D02*
X0204616Y0145858D01*
X0204616Y0146841D02*
X0201827Y0146841D01*
X0202810Y0147823D02*
X0204616Y0147823D01*
X0204616Y0148806D02*
X0203793Y0148806D01*
X0203979Y0149789D02*
X0204616Y0149789D01*
X0204616Y0150772D02*
X0203979Y0150772D01*
X0203979Y0151754D02*
X0204616Y0151754D01*
X0204616Y0152737D02*
X0203979Y0152737D01*
X0204616Y0153720D02*
X0203209Y0153720D01*
X0202226Y0154703D02*
X0204616Y0154703D01*
X0204616Y0155685D02*
X0202798Y0155685D01*
X0203781Y0156668D02*
X0204616Y0156668D01*
X0204616Y0157651D02*
X0203979Y0157651D01*
X0207820Y0161582D02*
X0211490Y0161582D01*
X0211490Y0160599D02*
X0208803Y0160599D01*
X0209163Y0160239D02*
X0203979Y0165423D01*
X0203979Y0168698D01*
X0201181Y0171496D01*
X0197224Y0171496D01*
X0194426Y0168698D01*
X0194426Y0165423D01*
X0182436Y0153432D01*
X0165443Y0153432D01*
X0165443Y0154142D01*
X0164677Y0154908D01*
X0165443Y0155675D01*
X0165443Y0160835D01*
X0164775Y0161503D01*
X0164852Y0161580D01*
X0164852Y0165953D01*
X0163988Y0166818D01*
X0159615Y0166818D01*
X0158750Y0165953D01*
X0158750Y0161580D01*
X0158828Y0161503D01*
X0158160Y0160835D01*
X0158160Y0155675D01*
X0158926Y0154908D01*
X0158160Y0154142D01*
X0158160Y0148982D01*
X0159024Y0148117D01*
X0164578Y0148117D01*
X0164972Y0148510D01*
X0173120Y0148510D01*
X0173120Y0142211D01*
X0173120Y0142528D01*
X0172255Y0143392D01*
X0167095Y0143392D01*
X0166230Y0142528D01*
X0166230Y0142211D01*
X0165246Y0142211D01*
X0165246Y0142528D01*
X0164381Y0143392D01*
X0159221Y0143392D01*
X0158356Y0142528D01*
X0158356Y0136974D01*
X0158848Y0136482D01*
X0158848Y0131209D01*
X0158476Y0131581D01*
X0153624Y0131581D01*
X0153624Y0135898D01*
X0152759Y0136762D01*
X0144536Y0136762D01*
X0143671Y0135898D01*
X0143671Y0126675D01*
X0144536Y0125810D01*
X0149990Y0125810D01*
X0149990Y0122635D01*
X0147098Y0122635D01*
X0146233Y0121770D01*
X0146233Y0120627D01*
X0145091Y0120627D01*
X0136624Y0129094D01*
X0136624Y0135898D01*
X0135759Y0136762D01*
X0127536Y0136762D01*
X0126671Y0135898D01*
X0126671Y0131581D01*
X0121820Y0131581D01*
X0120955Y0130717D01*
X0120955Y0125163D01*
X0121820Y0124298D01*
X0126980Y0124298D01*
X0127845Y0125163D01*
X0127845Y0125479D01*
X0132137Y0125479D01*
X0132936Y0125810D01*
X0134340Y0125810D01*
X0137614Y0122536D01*
X0137570Y0122536D01*
X0136445Y0122070D01*
X0135878Y0121502D01*
X0135051Y0122329D01*
X0129497Y0122329D01*
X0128632Y0121465D01*
X0128632Y0116304D01*
X0129398Y0115538D01*
X0128632Y0114772D01*
X0128632Y0109612D01*
X0129497Y0108747D01*
X0135051Y0108747D01*
X0135915Y0109612D01*
X0135915Y0110814D01*
X0138956Y0110814D01*
X0138956Y0102152D01*
X0137758Y0102152D01*
X0136604Y0100999D01*
X0134242Y0098637D01*
X0134242Y0079290D01*
X0135226Y0078305D01*
X0135226Y0059506D01*
X0135226Y0064188D01*
X0134242Y0065172D01*
X0133332Y0066083D01*
X0134144Y0066895D01*
X0134144Y0075205D01*
X0133279Y0076070D01*
X0122431Y0076070D01*
X0122431Y0099399D01*
X0123057Y0100025D01*
X0123523Y0101150D01*
X0123523Y0102367D01*
X0123057Y0103492D01*
X0122196Y0104353D01*
X0121071Y0104819D01*
X0120463Y0104819D01*
X0120463Y0142605D01*
X0135260Y0142605D01*
X0136479Y0141386D01*
X0138859Y0140400D01*
X0141436Y0140400D01*
X0143816Y0141386D01*
X0145638Y0143208D01*
X0146624Y0145588D01*
X0146624Y0148165D01*
X0145638Y0150545D01*
X0145604Y0150579D01*
X0145571Y0150658D01*
X0143772Y0152458D01*
X0141420Y0153432D01*
X0138875Y0153432D01*
X0136524Y0152458D01*
X0135529Y0151463D01*
X0120463Y0151463D01*
X0120463Y0153755D01*
X0119310Y0154908D01*
X0092088Y0154908D01*
X0074372Y0137192D01*
X0064529Y0137192D01*
X0063376Y0136038D01*
X0063376Y0122597D01*
X0064529Y0121444D01*
X0076002Y0121444D01*
X0085845Y0131286D01*
X0096841Y0131286D01*
X0096841Y0129318D01*
X0086183Y0129318D01*
X0064529Y0107664D01*
X0063376Y0106511D01*
X0063376Y0083227D01*
X0064529Y0082073D01*
X0063376Y0080920D01*
X0063376Y0057636D01*
X0064529Y0056483D01*
X0085906Y0035106D01*
X0085906Y0034221D01*
X0086372Y0033096D01*
X0087233Y0032235D01*
X0088358Y0031769D01*
X0089575Y0031769D01*
X0090700Y0032235D01*
X0091561Y0033096D01*
X0092027Y0034221D01*
X0092027Y0034410D01*
X0092446Y0034829D01*
X0096841Y0034829D01*
X0096841Y0030077D01*
X0097994Y0028924D01*
X0119310Y0028924D01*
X0120463Y0030077D01*
X0120463Y0031350D01*
X0121037Y0030775D01*
X0121348Y0030646D01*
X0121348Y0030281D01*
X0122213Y0029416D01*
X0122530Y0029416D01*
X0122530Y0028432D01*
X0122213Y0028432D01*
X0121348Y0027567D01*
X0121348Y0022407D01*
X0122213Y0021542D01*
X0127767Y0021542D01*
X0128632Y0022407D01*
X0128632Y0027567D01*
X0127767Y0028432D01*
X0127451Y0028432D01*
X0127451Y0029416D01*
X0127767Y0029416D01*
X0128337Y0029986D01*
X0128906Y0029416D01*
X0139578Y0029416D01*
X0140148Y0029986D01*
X0140717Y0029416D01*
X0146271Y0029416D01*
X0147136Y0030281D01*
X0147136Y0035441D01*
X0146271Y0036306D01*
X0142833Y0036306D01*
X0139163Y0039975D01*
X0139163Y0045586D01*
X0139124Y0045625D01*
X0139124Y0046957D01*
X0138259Y0047822D01*
X0131486Y0047822D01*
X0131486Y0054594D01*
X0130621Y0055459D01*
X0129290Y0055459D01*
X0129250Y0055499D01*
X0129290Y0055538D01*
X0130621Y0055538D01*
X0131486Y0056403D01*
X0131486Y0057270D01*
X0134322Y0057270D01*
X0135187Y0058135D01*
X0135187Y0059467D01*
X0135226Y0059506D01*
X0135266Y0059467D01*
X0135266Y0058135D01*
X0136131Y0057270D01*
X0140935Y0057270D01*
X0140935Y0047822D01*
X0140068Y0047822D01*
X0139203Y0046957D01*
X0139203Y0045625D01*
X0139163Y0045586D01*
X0139163Y0043955D01*
X0139203Y0043916D01*
X0139203Y0042584D01*
X0140068Y0041719D01*
X0142196Y0041719D01*
X0143061Y0042584D01*
X0143061Y0042802D01*
X0149076Y0042802D01*
X0150581Y0041297D01*
X0150581Y0036503D01*
X0149969Y0036503D01*
X0149104Y0035638D01*
X0149104Y0030084D01*
X0149969Y0029219D01*
X0150089Y0029219D01*
X0150089Y0028629D01*
X0149969Y0028629D01*
X0149104Y0027764D01*
X0149104Y0022210D01*
X0149969Y0021345D01*
X0155129Y0021345D01*
X0155994Y0022210D01*
X0155994Y0027764D01*
X0155129Y0028629D01*
X0155010Y0028629D01*
X0155010Y0029219D01*
X0155129Y0029219D01*
X0155896Y0029986D01*
X0156662Y0029219D01*
X0161822Y0029219D01*
X0162687Y0030084D01*
X0162687Y0035638D01*
X0161822Y0036503D01*
X0161457Y0036503D01*
X0161328Y0036814D01*
X0160058Y0038084D01*
X0160128Y0038155D01*
X0160128Y0043315D01*
X0159263Y0044180D01*
X0158947Y0044180D01*
X0158947Y0044967D01*
X0159066Y0044967D01*
X0159833Y0045734D01*
X0160599Y0044967D01*
X0165759Y0044967D01*
X0166562Y0045770D01*
X0167098Y0045548D01*
X0168316Y0045548D01*
X0169440Y0046014D01*
X0170301Y0046875D01*
X0170767Y0048000D01*
X0170767Y0049218D01*
X0170301Y0050343D01*
X0169440Y0051204D01*
X0168316Y0051670D01*
X0167098Y0051670D01*
X0166562Y0051448D01*
X0165759Y0052251D01*
X0160599Y0052251D01*
X0159833Y0051484D01*
X0159066Y0052251D01*
X0154447Y0052251D01*
X0155235Y0053038D01*
X0159263Y0053038D01*
X0160128Y0053903D01*
X0160128Y0058451D01*
X0168522Y0058451D01*
X0174428Y0064357D01*
X0175581Y0065510D01*
X0175581Y0066009D01*
X0176347Y0065243D01*
X0180720Y0065243D01*
X0181585Y0066108D01*
X0181585Y0070480D01*
X0181114Y0070951D01*
X0181486Y0071324D01*
X0182253Y0070558D01*
X0187392Y0070558D01*
X0187392Y0031731D01*
X0188545Y0030577D01*
X0190214Y0028909D01*
X0190089Y0028785D01*
X0190089Y0024496D01*
X0193122Y0021464D01*
X0197410Y0021464D01*
X0200442Y0024496D01*
X0200442Y0028785D01*
X0197586Y0031640D01*
X0200266Y0034320D01*
X0203122Y0031464D01*
X0207410Y0031464D01*
X0210442Y0034496D01*
X0210442Y0038785D01*
X0207586Y0041640D01*
X0210442Y0044496D01*
X0210442Y0048785D01*
X0207726Y0051500D01*
X0207726Y0058045D01*
X0207775Y0058282D01*
X0207726Y0058530D01*
X0207726Y0058783D01*
X0207634Y0059006D01*
X0207588Y0059243D01*
X0207449Y0059454D01*
X0207352Y0059688D01*
X0207181Y0059858D01*
X0207049Y0060059D01*
X0206839Y0060201D01*
X0206660Y0060380D01*
X0206437Y0060472D01*
X0203979Y0062132D01*
X0203979Y0063685D01*
X0208471Y0068176D01*
X0209163Y0068869D01*
X0209537Y0069773D01*
X0209537Y0159335D01*
X0209163Y0160239D01*
X0209421Y0159617D02*
X0211490Y0159617D01*
X0211490Y0158634D02*
X0209537Y0158634D01*
X0209537Y0157651D02*
X0211490Y0157651D01*
X0211490Y0156668D02*
X0209537Y0156668D01*
X0209537Y0155685D02*
X0211490Y0155685D01*
X0211490Y0154703D02*
X0209537Y0154703D01*
X0209537Y0153720D02*
X0211490Y0153720D01*
X0211490Y0152737D02*
X0209537Y0152737D01*
X0209537Y0151754D02*
X0211490Y0151754D01*
X0211490Y0150772D02*
X0209537Y0150772D01*
X0209537Y0149789D02*
X0211490Y0149789D01*
X0211490Y0148806D02*
X0209537Y0148806D01*
X0209537Y0147823D02*
X0211490Y0147823D01*
X0211490Y0146841D02*
X0209537Y0146841D01*
X0209537Y0145858D02*
X0211490Y0145858D01*
X0211490Y0144875D02*
X0209537Y0144875D01*
X0209537Y0143892D02*
X0211490Y0143892D01*
X0211490Y0142910D02*
X0209537Y0142910D01*
X0209537Y0141927D02*
X0211490Y0141927D01*
X0211490Y0140944D02*
X0209537Y0140944D01*
X0209537Y0139961D02*
X0211490Y0139961D01*
X0211490Y0138978D02*
X0209537Y0138978D01*
X0209537Y0137996D02*
X0211490Y0137996D01*
X0211490Y0137013D02*
X0209537Y0137013D01*
X0209537Y0136030D02*
X0211490Y0136030D01*
X0211490Y0135047D02*
X0209537Y0135047D01*
X0209537Y0134065D02*
X0211490Y0134065D01*
X0211490Y0133082D02*
X0209537Y0133082D01*
X0209537Y0132099D02*
X0211490Y0132099D01*
X0211490Y0131116D02*
X0209537Y0131116D01*
X0209537Y0130134D02*
X0211490Y0130134D01*
X0211490Y0129151D02*
X0209537Y0129151D01*
X0209537Y0128168D02*
X0211490Y0128168D01*
X0211490Y0127185D02*
X0209537Y0127185D01*
X0209537Y0126203D02*
X0211490Y0126203D01*
X0211490Y0125220D02*
X0209537Y0125220D01*
X0209537Y0124237D02*
X0211490Y0124237D01*
X0211490Y0123254D02*
X0209537Y0123254D01*
X0209537Y0122272D02*
X0211490Y0122272D01*
X0211490Y0121289D02*
X0209537Y0121289D01*
X0209537Y0120306D02*
X0211490Y0120306D01*
X0211490Y0119323D02*
X0209537Y0119323D01*
X0209537Y0118340D02*
X0211490Y0118340D01*
X0211490Y0117358D02*
X0209537Y0117358D01*
X0209537Y0116375D02*
X0211490Y0116375D01*
X0211490Y0115392D02*
X0209537Y0115392D01*
X0209537Y0114409D02*
X0211490Y0114409D01*
X0211490Y0113427D02*
X0209537Y0113427D01*
X0209537Y0112444D02*
X0211490Y0112444D01*
X0211490Y0111461D02*
X0209537Y0111461D01*
X0209537Y0110478D02*
X0211490Y0110478D01*
X0211490Y0109496D02*
X0209537Y0109496D01*
X0209537Y0108513D02*
X0211490Y0108513D01*
X0211490Y0107530D02*
X0209537Y0107530D01*
X0209537Y0106547D02*
X0211490Y0106547D01*
X0211490Y0105565D02*
X0209537Y0105565D01*
X0209537Y0104582D02*
X0211490Y0104582D01*
X0211490Y0103599D02*
X0209537Y0103599D01*
X0209537Y0102616D02*
X0211490Y0102616D01*
X0211490Y0101633D02*
X0209537Y0101633D01*
X0209537Y0100651D02*
X0211490Y0100651D01*
X0211490Y0099668D02*
X0209537Y0099668D01*
X0209537Y0098685D02*
X0211490Y0098685D01*
X0211490Y0097702D02*
X0209537Y0097702D01*
X0209537Y0096720D02*
X0211490Y0096720D01*
X0211490Y0095737D02*
X0209537Y0095737D01*
X0209537Y0094754D02*
X0211490Y0094754D01*
X0211490Y0093771D02*
X0209537Y0093771D01*
X0209537Y0092789D02*
X0211490Y0092789D01*
X0211490Y0091806D02*
X0209537Y0091806D01*
X0209537Y0090823D02*
X0211490Y0090823D01*
X0211490Y0089840D02*
X0209537Y0089840D01*
X0209537Y0088858D02*
X0211490Y0088858D01*
X0211490Y0087875D02*
X0209537Y0087875D01*
X0209537Y0086892D02*
X0211490Y0086892D01*
X0211490Y0085909D02*
X0209537Y0085909D01*
X0209537Y0084927D02*
X0211490Y0084927D01*
X0211490Y0083944D02*
X0209537Y0083944D01*
X0209537Y0082961D02*
X0211490Y0082961D01*
X0211490Y0081978D02*
X0209537Y0081978D01*
X0209537Y0080995D02*
X0211490Y0080995D01*
X0211490Y0080013D02*
X0209537Y0080013D01*
X0209537Y0079030D02*
X0211490Y0079030D01*
X0211490Y0078047D02*
X0209537Y0078047D01*
X0209537Y0077064D02*
X0211490Y0077064D01*
X0211490Y0076082D02*
X0209537Y0076082D01*
X0209537Y0075099D02*
X0211490Y0075099D01*
X0211490Y0074116D02*
X0209537Y0074116D01*
X0209537Y0073133D02*
X0211490Y0073133D01*
X0211490Y0072151D02*
X0209537Y0072151D01*
X0209537Y0071168D02*
X0211490Y0071168D01*
X0211490Y0070185D02*
X0209537Y0070185D01*
X0209301Y0069202D02*
X0211490Y0069202D01*
X0211490Y0068220D02*
X0208514Y0068220D01*
X0207531Y0067237D02*
X0211490Y0067237D01*
X0211490Y0066254D02*
X0206548Y0066254D01*
X0205565Y0065271D02*
X0211490Y0065271D01*
X0211490Y0064288D02*
X0204583Y0064288D01*
X0203979Y0063306D02*
X0211490Y0063306D01*
X0211490Y0062323D02*
X0203979Y0062323D01*
X0205152Y0061340D02*
X0211490Y0061340D01*
X0211490Y0060357D02*
X0206682Y0060357D01*
X0207501Y0059375D02*
X0211490Y0059375D01*
X0211490Y0058392D02*
X0207753Y0058392D01*
X0207726Y0057409D02*
X0211490Y0057409D01*
X0211490Y0056426D02*
X0207726Y0056426D01*
X0207726Y0055444D02*
X0211490Y0055444D01*
X0211490Y0054461D02*
X0207726Y0054461D01*
X0207726Y0053478D02*
X0211490Y0053478D01*
X0211490Y0052495D02*
X0207726Y0052495D01*
X0207726Y0051513D02*
X0211490Y0051513D01*
X0211490Y0050530D02*
X0208697Y0050530D01*
X0209680Y0049547D02*
X0211490Y0049547D01*
X0211490Y0048564D02*
X0210442Y0048564D01*
X0210442Y0047581D02*
X0211490Y0047581D01*
X0211490Y0046599D02*
X0210442Y0046599D01*
X0210442Y0045616D02*
X0211490Y0045616D01*
X0211490Y0044633D02*
X0210442Y0044633D01*
X0209596Y0043650D02*
X0211490Y0043650D01*
X0211490Y0042668D02*
X0208614Y0042668D01*
X0207631Y0041685D02*
X0211490Y0041685D01*
X0211490Y0040702D02*
X0208525Y0040702D01*
X0209507Y0039719D02*
X0211490Y0039719D01*
X0211490Y0038737D02*
X0210442Y0038737D01*
X0210442Y0037754D02*
X0211490Y0037754D01*
X0211490Y0036771D02*
X0210442Y0036771D01*
X0210442Y0035788D02*
X0211490Y0035788D01*
X0211490Y0034806D02*
X0210442Y0034806D01*
X0209769Y0033823D02*
X0211490Y0033823D01*
X0211490Y0032840D02*
X0208786Y0032840D01*
X0207803Y0031857D02*
X0211490Y0031857D01*
X0211490Y0030875D02*
X0198352Y0030875D01*
X0197803Y0031857D02*
X0202728Y0031857D01*
X0201746Y0032840D02*
X0198786Y0032840D01*
X0199769Y0033823D02*
X0200763Y0033823D01*
X0199335Y0029892D02*
X0211490Y0029892D01*
X0211490Y0028909D02*
X0200318Y0028909D01*
X0200442Y0027926D02*
X0211490Y0027926D01*
X0211490Y0026943D02*
X0200442Y0026943D01*
X0200442Y0025961D02*
X0211490Y0025961D01*
X0211490Y0024978D02*
X0200442Y0024978D01*
X0199941Y0023995D02*
X0211490Y0023995D01*
X0211490Y0023012D02*
X0198958Y0023012D01*
X0197976Y0022030D02*
X0211490Y0022030D01*
X0211490Y0021047D02*
X0056994Y0021047D01*
X0056994Y0020573D02*
X0056994Y0175070D01*
X0211490Y0175070D01*
X0211490Y0020573D01*
X0056994Y0020573D01*
X0056994Y0022030D02*
X0121726Y0022030D01*
X0121348Y0023012D02*
X0056994Y0023012D01*
X0056994Y0023995D02*
X0066810Y0023995D01*
X0067664Y0023685D02*
X0069282Y0023685D01*
X0070900Y0023685D01*
X0073941Y0024791D01*
X0076419Y0026871D01*
X0076420Y0026871D02*
X0076420Y0026871D01*
X0076419Y0026871D01*
X0076420Y0026871D02*
X0078038Y0029674D01*
X0078599Y0032861D01*
X0078038Y0036048D01*
X0076420Y0038850D01*
X0076420Y0038850D01*
X0073941Y0040930D01*
X0070900Y0042037D01*
X0067664Y0042037D01*
X0064623Y0040930D01*
X0064623Y0040930D01*
X0062144Y0038850D01*
X0060526Y0036048D01*
X0059964Y0032861D01*
X0060526Y0029674D01*
X0062144Y0026871D01*
X0064623Y0024791D01*
X0067664Y0023685D01*
X0070900Y0023685D02*
X0070900Y0023685D01*
X0071753Y0023995D02*
X0121348Y0023995D01*
X0121348Y0024978D02*
X0074163Y0024978D01*
X0073941Y0024791D02*
X0073941Y0024791D01*
X0075334Y0025961D02*
X0121348Y0025961D01*
X0121348Y0026943D02*
X0076461Y0026943D01*
X0077028Y0027926D02*
X0121708Y0027926D01*
X0122530Y0028909D02*
X0077596Y0028909D01*
X0078038Y0029674D02*
X0078038Y0029674D01*
X0078076Y0029892D02*
X0097026Y0029892D01*
X0096841Y0030875D02*
X0078249Y0030875D01*
X0078423Y0031857D02*
X0088144Y0031857D01*
X0089789Y0031857D02*
X0096841Y0031857D01*
X0096841Y0032840D02*
X0091306Y0032840D01*
X0091862Y0033823D02*
X0096841Y0033823D01*
X0096841Y0034806D02*
X0092423Y0034806D01*
X0095684Y0036798D02*
X0096018Y0037131D01*
X0096018Y0041150D01*
X0095153Y0042014D01*
X0088528Y0042014D01*
X0087663Y0041150D01*
X0087663Y0037602D01*
X0087233Y0037424D01*
X0086802Y0036994D01*
X0065345Y0058451D01*
X0065345Y0080105D01*
X0096841Y0080105D01*
X0096841Y0036798D01*
X0095684Y0036798D01*
X0096018Y0037754D02*
X0096841Y0037754D01*
X0096841Y0038737D02*
X0096018Y0038737D01*
X0096018Y0039719D02*
X0096841Y0039719D01*
X0096841Y0040702D02*
X0096018Y0040702D01*
X0095482Y0041685D02*
X0096841Y0041685D01*
X0096841Y0042668D02*
X0081128Y0042668D01*
X0080146Y0043650D02*
X0096841Y0043650D01*
X0096841Y0044633D02*
X0079163Y0044633D01*
X0078180Y0045616D02*
X0096841Y0045616D01*
X0096841Y0046599D02*
X0077197Y0046599D01*
X0076214Y0047581D02*
X0096841Y0047581D01*
X0096841Y0048564D02*
X0075232Y0048564D01*
X0074249Y0049547D02*
X0096841Y0049547D01*
X0096841Y0050530D02*
X0073266Y0050530D01*
X0072283Y0051513D02*
X0096841Y0051513D01*
X0096841Y0052495D02*
X0071301Y0052495D01*
X0070318Y0053478D02*
X0096841Y0053478D01*
X0096841Y0054461D02*
X0069335Y0054461D01*
X0068352Y0055444D02*
X0096841Y0055444D01*
X0096841Y0056426D02*
X0067370Y0056426D01*
X0066387Y0057409D02*
X0096841Y0057409D01*
X0096841Y0058392D02*
X0065404Y0058392D01*
X0065345Y0059375D02*
X0096841Y0059375D01*
X0096841Y0060357D02*
X0065345Y0060357D01*
X0065345Y0061340D02*
X0096841Y0061340D01*
X0096841Y0062323D02*
X0065345Y0062323D01*
X0065345Y0063306D02*
X0096841Y0063306D01*
X0096841Y0064288D02*
X0065345Y0064288D01*
X0065345Y0065271D02*
X0096841Y0065271D01*
X0096841Y0066254D02*
X0065345Y0066254D01*
X0065345Y0067237D02*
X0096841Y0067237D01*
X0096841Y0068220D02*
X0065345Y0068220D01*
X0065345Y0069202D02*
X0096841Y0069202D01*
X0096841Y0070185D02*
X0065345Y0070185D01*
X0065345Y0071168D02*
X0096841Y0071168D01*
X0096841Y0072151D02*
X0065345Y0072151D01*
X0065345Y0073133D02*
X0096841Y0073133D01*
X0096841Y0074116D02*
X0065345Y0074116D01*
X0065345Y0075099D02*
X0096841Y0075099D01*
X0096841Y0076082D02*
X0065345Y0076082D01*
X0065345Y0077064D02*
X0096841Y0077064D01*
X0096841Y0078047D02*
X0065345Y0078047D01*
X0065345Y0079030D02*
X0096841Y0079030D01*
X0096841Y0080013D02*
X0065345Y0080013D01*
X0063376Y0080013D02*
X0056994Y0080013D01*
X0056994Y0080995D02*
X0063451Y0080995D01*
X0064434Y0081978D02*
X0056994Y0081978D01*
X0056994Y0082961D02*
X0063642Y0082961D01*
X0063376Y0083944D02*
X0056994Y0083944D01*
X0056994Y0084927D02*
X0063376Y0084927D01*
X0063376Y0085909D02*
X0056994Y0085909D01*
X0056994Y0086892D02*
X0063376Y0086892D01*
X0063376Y0087875D02*
X0056994Y0087875D01*
X0056994Y0088858D02*
X0063376Y0088858D01*
X0063376Y0089840D02*
X0056994Y0089840D01*
X0056994Y0090823D02*
X0063376Y0090823D01*
X0063376Y0091806D02*
X0056994Y0091806D01*
X0056994Y0092789D02*
X0063376Y0092789D01*
X0063376Y0093771D02*
X0056994Y0093771D01*
X0056994Y0094754D02*
X0063376Y0094754D01*
X0063376Y0095737D02*
X0056994Y0095737D01*
X0056994Y0096720D02*
X0063376Y0096720D01*
X0063376Y0097702D02*
X0056994Y0097702D01*
X0056994Y0098685D02*
X0063376Y0098685D01*
X0063376Y0099668D02*
X0056994Y0099668D01*
X0056994Y0100651D02*
X0063376Y0100651D01*
X0063376Y0101633D02*
X0056994Y0101633D01*
X0056994Y0102616D02*
X0063376Y0102616D01*
X0063376Y0103599D02*
X0056994Y0103599D01*
X0056994Y0104582D02*
X0063376Y0104582D01*
X0063376Y0105565D02*
X0056994Y0105565D01*
X0056994Y0106547D02*
X0063412Y0106547D01*
X0064395Y0107530D02*
X0056994Y0107530D01*
X0056994Y0108513D02*
X0065378Y0108513D01*
X0066361Y0109496D02*
X0056994Y0109496D01*
X0056994Y0110478D02*
X0067343Y0110478D01*
X0068326Y0111461D02*
X0056994Y0111461D01*
X0056994Y0112444D02*
X0069309Y0112444D01*
X0070292Y0113427D02*
X0056994Y0113427D01*
X0056994Y0114409D02*
X0071275Y0114409D01*
X0072257Y0115392D02*
X0056994Y0115392D01*
X0056994Y0116375D02*
X0073240Y0116375D01*
X0074223Y0117358D02*
X0056994Y0117358D01*
X0056994Y0118340D02*
X0075206Y0118340D01*
X0076188Y0119323D02*
X0056994Y0119323D01*
X0056994Y0120306D02*
X0077171Y0120306D01*
X0078154Y0121289D02*
X0056994Y0121289D01*
X0056994Y0122272D02*
X0063701Y0122272D01*
X0063376Y0123254D02*
X0056994Y0123254D01*
X0056994Y0124237D02*
X0063376Y0124237D01*
X0063376Y0125220D02*
X0056994Y0125220D01*
X0056994Y0126203D02*
X0063376Y0126203D01*
X0063376Y0127185D02*
X0056994Y0127185D01*
X0056994Y0128168D02*
X0063376Y0128168D01*
X0063376Y0129151D02*
X0056994Y0129151D01*
X0056994Y0130134D02*
X0063376Y0130134D01*
X0063376Y0131116D02*
X0056994Y0131116D01*
X0056994Y0132099D02*
X0063376Y0132099D01*
X0063376Y0133082D02*
X0056994Y0133082D01*
X0056994Y0134065D02*
X0063376Y0134065D01*
X0063376Y0135047D02*
X0056994Y0135047D01*
X0056994Y0136030D02*
X0063376Y0136030D01*
X0064351Y0137013D02*
X0056994Y0137013D01*
X0056994Y0137996D02*
X0075176Y0137996D01*
X0076159Y0138978D02*
X0056994Y0138978D01*
X0056994Y0139961D02*
X0077141Y0139961D01*
X0078124Y0140944D02*
X0056994Y0140944D01*
X0056994Y0141927D02*
X0079107Y0141927D01*
X0080090Y0142910D02*
X0056994Y0142910D01*
X0056994Y0143892D02*
X0081072Y0143892D01*
X0082055Y0144875D02*
X0056994Y0144875D01*
X0056994Y0145858D02*
X0083038Y0145858D01*
X0084021Y0146841D02*
X0056994Y0146841D01*
X0056994Y0147823D02*
X0085003Y0147823D01*
X0085986Y0148806D02*
X0056994Y0148806D01*
X0056994Y0149789D02*
X0086969Y0149789D01*
X0087952Y0150772D02*
X0056994Y0150772D01*
X0056994Y0151754D02*
X0088934Y0151754D01*
X0089917Y0152737D02*
X0056994Y0152737D01*
X0056994Y0153720D02*
X0067350Y0153720D01*
X0067664Y0153606D02*
X0068504Y0153606D01*
X0070900Y0153606D01*
X0073941Y0154713D01*
X0076419Y0156793D01*
X0076420Y0156793D02*
X0078038Y0159595D01*
X0078038Y0159595D01*
X0078599Y0162782D01*
X0078038Y0165969D01*
X0076420Y0168772D01*
X0073941Y0170852D01*
X0073941Y0170852D01*
X0070900Y0171959D01*
X0067664Y0171959D01*
X0064623Y0170852D01*
X0064623Y0170852D01*
X0062144Y0168772D01*
X0062144Y0168772D01*
X0062144Y0168772D01*
X0060526Y0165969D01*
X0059964Y0162782D01*
X0060526Y0159595D01*
X0062144Y0156793D01*
X0064623Y0154713D01*
X0067664Y0153606D01*
X0071213Y0153720D02*
X0090900Y0153720D01*
X0091883Y0154703D02*
X0073913Y0154703D01*
X0075100Y0155685D02*
X0158160Y0155685D01*
X0158160Y0156668D02*
X0076271Y0156668D01*
X0076420Y0156793D02*
X0076420Y0156793D01*
X0076419Y0156793D01*
X0076915Y0157651D02*
X0158160Y0157651D01*
X0158160Y0158634D02*
X0077482Y0158634D01*
X0078041Y0159617D02*
X0158160Y0159617D01*
X0158160Y0160599D02*
X0078215Y0160599D01*
X0078388Y0161582D02*
X0158750Y0161582D01*
X0158750Y0162565D02*
X0078561Y0162565D01*
X0078599Y0162782D02*
X0078599Y0162782D01*
X0078465Y0163548D02*
X0158750Y0163548D01*
X0158750Y0164530D02*
X0078291Y0164530D01*
X0078118Y0165513D02*
X0158750Y0165513D01*
X0159293Y0166496D02*
X0077733Y0166496D01*
X0078038Y0165969D02*
X0078038Y0165969D01*
X0077166Y0167479D02*
X0169665Y0167479D01*
X0170232Y0168461D02*
X0076599Y0168461D01*
X0076420Y0168772D02*
X0076420Y0168772D01*
X0075618Y0169444D02*
X0171213Y0169444D01*
X0170411Y0168772D02*
X0170411Y0168772D01*
X0168793Y0165969D01*
X0168231Y0162782D01*
X0168793Y0159595D01*
X0170411Y0156793D01*
X0170411Y0156793D01*
X0172890Y0154713D01*
X0172890Y0154713D01*
X0175931Y0153606D01*
X0176772Y0153606D01*
X0179167Y0153606D01*
X0182208Y0154713D01*
X0182208Y0154713D01*
X0184687Y0156793D01*
X0186305Y0159595D01*
X0186305Y0159595D01*
X0186867Y0162782D01*
X0186867Y0162782D01*
X0186305Y0165969D01*
X0184687Y0168772D01*
X0182208Y0170852D01*
X0179167Y0171959D01*
X0175931Y0171959D01*
X0172890Y0170852D01*
X0170411Y0168772D01*
X0170411Y0168772D01*
X0172384Y0170427D02*
X0074447Y0170427D01*
X0072408Y0171410D02*
X0174423Y0171410D01*
X0172890Y0170852D02*
X0172890Y0170852D01*
X0169097Y0166496D02*
X0164309Y0166496D01*
X0164852Y0165513D02*
X0168713Y0165513D01*
X0168793Y0165969D02*
X0168793Y0165969D01*
X0168540Y0164530D02*
X0164852Y0164530D01*
X0164852Y0163548D02*
X0168366Y0163548D01*
X0168231Y0162782D02*
X0168231Y0162782D01*
X0168270Y0162565D02*
X0164852Y0162565D01*
X0164852Y0161582D02*
X0168443Y0161582D01*
X0168616Y0160599D02*
X0165443Y0160599D01*
X0165443Y0159617D02*
X0168790Y0159617D01*
X0168793Y0159595D02*
X0168793Y0159595D01*
X0169348Y0158634D02*
X0165443Y0158634D01*
X0165443Y0157651D02*
X0169916Y0157651D01*
X0170560Y0156668D02*
X0165443Y0156668D01*
X0165443Y0155685D02*
X0171731Y0155685D01*
X0172917Y0154703D02*
X0164882Y0154703D01*
X0165443Y0153720D02*
X0175618Y0153720D01*
X0179481Y0153720D02*
X0182724Y0153720D01*
X0182181Y0154703D02*
X0183707Y0154703D01*
X0183368Y0155685D02*
X0184689Y0155685D01*
X0184539Y0156668D02*
X0185672Y0156668D01*
X0184687Y0156793D02*
X0184687Y0156793D01*
X0184687Y0156793D01*
X0185183Y0157651D02*
X0186655Y0157651D01*
X0185750Y0158634D02*
X0187638Y0158634D01*
X0188620Y0159617D02*
X0186309Y0159617D01*
X0186482Y0160599D02*
X0189603Y0160599D01*
X0190586Y0161582D02*
X0186656Y0161582D01*
X0186829Y0162565D02*
X0191569Y0162565D01*
X0192551Y0163548D02*
X0186732Y0163548D01*
X0186559Y0164530D02*
X0193534Y0164530D01*
X0194426Y0165513D02*
X0186386Y0165513D01*
X0186305Y0165969D02*
X0186305Y0165969D01*
X0186001Y0166496D02*
X0194426Y0166496D01*
X0194426Y0167479D02*
X0185434Y0167479D01*
X0184866Y0168461D02*
X0194426Y0168461D01*
X0195173Y0169444D02*
X0183886Y0169444D01*
X0184687Y0168772D02*
X0184687Y0168772D01*
X0182715Y0170427D02*
X0196156Y0170427D01*
X0197139Y0171410D02*
X0180675Y0171410D01*
X0182208Y0170852D02*
X0182208Y0170852D01*
X0201267Y0171410D02*
X0211490Y0171410D01*
X0211490Y0172392D02*
X0056994Y0172392D01*
X0056994Y0171410D02*
X0066156Y0171410D01*
X0064116Y0170427D02*
X0056994Y0170427D01*
X0056994Y0169444D02*
X0062945Y0169444D01*
X0061965Y0168461D02*
X0056994Y0168461D01*
X0056994Y0167479D02*
X0061397Y0167479D01*
X0060830Y0166496D02*
X0056994Y0166496D01*
X0056994Y0165513D02*
X0060445Y0165513D01*
X0060526Y0165969D02*
X0060526Y0165969D01*
X0060272Y0164530D02*
X0056994Y0164530D01*
X0056994Y0163548D02*
X0060099Y0163548D01*
X0059964Y0162782D02*
X0059964Y0162782D01*
X0060002Y0162565D02*
X0056994Y0162565D01*
X0056994Y0161582D02*
X0060175Y0161582D01*
X0060349Y0160599D02*
X0056994Y0160599D01*
X0056994Y0159617D02*
X0060522Y0159617D01*
X0060526Y0159595D02*
X0060526Y0159595D01*
X0061081Y0158634D02*
X0056994Y0158634D01*
X0056994Y0157651D02*
X0061648Y0157651D01*
X0062144Y0156793D02*
X0062144Y0156793D01*
X0062292Y0156668D02*
X0056994Y0156668D01*
X0056994Y0155685D02*
X0063463Y0155685D01*
X0064623Y0154713D02*
X0064623Y0154713D01*
X0064650Y0154703D02*
X0056994Y0154703D01*
X0076977Y0137013D02*
X0118494Y0137013D01*
X0118494Y0137996D02*
X0077960Y0137996D01*
X0078942Y0138978D02*
X0118494Y0138978D01*
X0118494Y0139961D02*
X0079925Y0139961D01*
X0080908Y0140944D02*
X0118494Y0140944D01*
X0118494Y0141927D02*
X0081891Y0141927D01*
X0082874Y0142910D02*
X0118494Y0142910D01*
X0118494Y0143892D02*
X0083856Y0143892D01*
X0084839Y0144875D02*
X0118494Y0144875D01*
X0118494Y0145858D02*
X0085822Y0145858D01*
X0086805Y0146841D02*
X0118494Y0146841D01*
X0118494Y0147823D02*
X0087787Y0147823D01*
X0088770Y0148806D02*
X0118494Y0148806D01*
X0118494Y0149789D02*
X0089753Y0149789D01*
X0090736Y0150772D02*
X0118494Y0150772D01*
X0118494Y0151754D02*
X0091718Y0151754D01*
X0092701Y0152737D02*
X0118494Y0152737D01*
X0118494Y0152940D02*
X0118494Y0104118D01*
X0118221Y0103845D01*
X0117377Y0103845D01*
X0116964Y0104259D01*
X0110339Y0104259D01*
X0109808Y0103727D01*
X0107763Y0103727D01*
X0107232Y0104259D01*
X0098809Y0104259D01*
X0098809Y0133255D01*
X0085030Y0133255D01*
X0075187Y0123412D01*
X0065345Y0123412D01*
X0065345Y0135223D01*
X0075187Y0135223D01*
X0092904Y0152940D01*
X0118494Y0152940D01*
X0120463Y0152737D02*
X0137198Y0152737D01*
X0135820Y0151754D02*
X0120463Y0151754D01*
X0120463Y0153720D02*
X0158160Y0153720D01*
X0158160Y0152737D02*
X0143097Y0152737D01*
X0144475Y0151754D02*
X0158160Y0151754D01*
X0158160Y0150772D02*
X0145458Y0150772D01*
X0145951Y0149789D02*
X0158160Y0149789D01*
X0158335Y0148806D02*
X0146358Y0148806D01*
X0146624Y0147823D02*
X0173120Y0147823D01*
X0173120Y0146841D02*
X0146624Y0146841D01*
X0146624Y0145858D02*
X0173120Y0145858D01*
X0173120Y0144875D02*
X0146329Y0144875D01*
X0145922Y0143892D02*
X0173120Y0143892D01*
X0173120Y0142910D02*
X0172738Y0142910D01*
X0173120Y0142211D02*
X0173120Y0142211D01*
X0178534Y0146050D02*
X0178534Y0127320D01*
X0170856Y0119643D01*
X0170856Y0118659D01*
X0170856Y0118688D01*
X0173433Y0118340D02*
X0174764Y0118340D01*
X0174764Y0117358D02*
X0173433Y0117358D01*
X0173433Y0116375D02*
X0174764Y0116375D01*
X0174764Y0115392D02*
X0173278Y0115392D01*
X0173433Y0115547D02*
X0173433Y0119435D01*
X0174764Y0120767D01*
X0174764Y0115359D01*
X0173621Y0115359D01*
X0172756Y0114494D01*
X0172756Y0089023D01*
X0173621Y0088159D01*
X0174764Y0088159D01*
X0174764Y0084041D01*
X0173433Y0082709D01*
X0173433Y0087970D01*
X0172568Y0088835D01*
X0162846Y0088835D01*
X0161981Y0087970D01*
X0161981Y0081747D01*
X0162846Y0080882D01*
X0165738Y0080882D01*
X0165738Y0067141D01*
X0164923Y0066325D01*
X0150159Y0066325D01*
X0147206Y0063373D01*
X0146669Y0062835D01*
X0147047Y0063748D01*
X0147047Y0064966D01*
X0146851Y0065440D01*
X0148830Y0065440D01*
X0149695Y0066304D01*
X0149695Y0071465D01*
X0148830Y0072329D01*
X0143276Y0072329D01*
X0143100Y0072153D01*
X0143100Y0078136D01*
X0149498Y0078136D01*
X0149498Y0077056D01*
X0149873Y0076152D01*
X0150482Y0075542D01*
X0150482Y0072801D01*
X0151347Y0071936D01*
X0156507Y0071936D01*
X0157372Y0072801D01*
X0157372Y0073117D01*
X0158356Y0073117D01*
X0158356Y0072801D01*
X0159221Y0071936D01*
X0164381Y0071936D01*
X0165246Y0072801D01*
X0165246Y0078354D01*
X0164381Y0079219D01*
X0161639Y0079219D01*
X0160719Y0080140D01*
X0160719Y0081631D01*
X0160834Y0081747D01*
X0160834Y0087970D01*
X0160719Y0088086D01*
X0160719Y0099164D01*
X0162801Y0101247D01*
X0163494Y0101939D01*
X0163868Y0102844D01*
X0163868Y0115431D01*
X0163984Y0115547D01*
X0163984Y0121770D01*
X0163868Y0121886D01*
X0163868Y0121999D01*
X0165164Y0123295D01*
X0165738Y0123869D01*
X0165738Y0122378D01*
X0165130Y0121770D01*
X0165130Y0115547D01*
X0165995Y0114682D01*
X0172568Y0114682D01*
X0173433Y0115547D01*
X0172756Y0114409D02*
X0163868Y0114409D01*
X0163868Y0113427D02*
X0172756Y0113427D01*
X0172756Y0112444D02*
X0163868Y0112444D01*
X0163868Y0111461D02*
X0172756Y0111461D01*
X0172756Y0110478D02*
X0163868Y0110478D01*
X0163868Y0109496D02*
X0172756Y0109496D01*
X0172756Y0108513D02*
X0163868Y0108513D01*
X0163868Y0107530D02*
X0172756Y0107530D01*
X0172756Y0106547D02*
X0163868Y0106547D01*
X0163868Y0105565D02*
X0172756Y0105565D01*
X0172756Y0104582D02*
X0163868Y0104582D01*
X0163868Y0103599D02*
X0172756Y0103599D01*
X0172756Y0102616D02*
X0163774Y0102616D01*
X0163188Y0101633D02*
X0172756Y0101633D01*
X0172756Y0100651D02*
X0162205Y0100651D01*
X0161222Y0099668D02*
X0172756Y0099668D01*
X0172756Y0098685D02*
X0160719Y0098685D01*
X0160719Y0097702D02*
X0172756Y0097702D01*
X0172756Y0096720D02*
X0160719Y0096720D01*
X0160719Y0095737D02*
X0172756Y0095737D01*
X0172756Y0094754D02*
X0160719Y0094754D01*
X0160719Y0093771D02*
X0172756Y0093771D01*
X0172756Y0092789D02*
X0160719Y0092789D01*
X0160719Y0091806D02*
X0172756Y0091806D01*
X0172756Y0090823D02*
X0160719Y0090823D01*
X0160719Y0089840D02*
X0172756Y0089840D01*
X0172922Y0088858D02*
X0160719Y0088858D01*
X0160834Y0087875D02*
X0161981Y0087875D01*
X0161981Y0086892D02*
X0160834Y0086892D01*
X0160834Y0085909D02*
X0161981Y0085909D01*
X0161981Y0084927D02*
X0160834Y0084927D01*
X0160834Y0083944D02*
X0161981Y0083944D01*
X0161981Y0082961D02*
X0160834Y0082961D01*
X0160834Y0081978D02*
X0161981Y0081978D01*
X0162732Y0080995D02*
X0160719Y0080995D01*
X0160846Y0080013D02*
X0165738Y0080013D01*
X0165738Y0079030D02*
X0164570Y0079030D01*
X0165246Y0078047D02*
X0165738Y0078047D01*
X0165738Y0077064D02*
X0165246Y0077064D01*
X0165246Y0076082D02*
X0165738Y0076082D01*
X0165738Y0075099D02*
X0165246Y0075099D01*
X0165246Y0074116D02*
X0165738Y0074116D01*
X0165738Y0073133D02*
X0165246Y0073133D01*
X0165738Y0072151D02*
X0164596Y0072151D01*
X0165738Y0071168D02*
X0149695Y0071168D01*
X0149695Y0070185D02*
X0165738Y0070185D01*
X0165738Y0069202D02*
X0149695Y0069202D01*
X0149695Y0068220D02*
X0165738Y0068220D01*
X0165738Y0067237D02*
X0149695Y0067237D01*
X0149644Y0066254D02*
X0150088Y0066254D01*
X0149105Y0065271D02*
X0146920Y0065271D01*
X0147047Y0064288D02*
X0148122Y0064288D01*
X0147139Y0063306D02*
X0146864Y0063306D01*
X0148022Y0061404D02*
X0148022Y0057467D01*
X0146053Y0055499D01*
X0143986Y0055499D01*
X0143986Y0057467D02*
X0143986Y0064357D01*
X0143986Y0066818D01*
X0146053Y0068885D01*
X0149009Y0072151D02*
X0151132Y0072151D01*
X0150482Y0073133D02*
X0143100Y0073133D01*
X0143100Y0074116D02*
X0150482Y0074116D01*
X0150482Y0075099D02*
X0143100Y0075099D01*
X0143100Y0076082D02*
X0149943Y0076082D01*
X0149498Y0077064D02*
X0143100Y0077064D01*
X0143100Y0078047D02*
X0149498Y0078047D01*
X0151959Y0080105D02*
X0142116Y0080105D01*
X0141132Y0079121D01*
X0141132Y0060322D01*
X0139163Y0060322D02*
X0139163Y0081089D01*
X0138179Y0082073D01*
X0138179Y0095853D01*
X0139360Y0097034D01*
X0142933Y0097034D01*
X0142933Y0100184D02*
X0138573Y0100184D01*
X0136211Y0097822D01*
X0136211Y0080105D01*
X0137195Y0079121D01*
X0137195Y0060322D01*
X0135226Y0060357D02*
X0135226Y0060357D01*
X0135187Y0059375D02*
X0135266Y0059375D01*
X0135266Y0058392D02*
X0135187Y0058392D01*
X0134461Y0057409D02*
X0135992Y0057409D01*
X0133258Y0060322D02*
X0133258Y0063373D01*
X0132274Y0064357D01*
X0130305Y0064357D01*
X0133503Y0066254D02*
X0135226Y0066254D01*
X0135226Y0067237D02*
X0134144Y0067237D01*
X0134144Y0068220D02*
X0135226Y0068220D01*
X0135226Y0069202D02*
X0134144Y0069202D01*
X0134144Y0070185D02*
X0135226Y0070185D01*
X0135226Y0071168D02*
X0134144Y0071168D01*
X0134144Y0072151D02*
X0135226Y0072151D01*
X0135226Y0073133D02*
X0134144Y0073133D01*
X0134144Y0074116D02*
X0135226Y0074116D01*
X0135226Y0075099D02*
X0134144Y0075099D01*
X0135226Y0076082D02*
X0122431Y0076082D01*
X0122431Y0077064D02*
X0135226Y0077064D01*
X0135226Y0078047D02*
X0122431Y0078047D01*
X0122431Y0079030D02*
X0134502Y0079030D01*
X0134242Y0080013D02*
X0122431Y0080013D01*
X0122431Y0080995D02*
X0134242Y0080995D01*
X0134242Y0081978D02*
X0122431Y0081978D01*
X0122431Y0082961D02*
X0134242Y0082961D01*
X0134242Y0083944D02*
X0122431Y0083944D01*
X0122431Y0084927D02*
X0134242Y0084927D01*
X0134242Y0085909D02*
X0122431Y0085909D01*
X0122431Y0086892D02*
X0134242Y0086892D01*
X0134242Y0087875D02*
X0122431Y0087875D01*
X0122431Y0088858D02*
X0134242Y0088858D01*
X0134242Y0089840D02*
X0122431Y0089840D01*
X0122431Y0090823D02*
X0134242Y0090823D01*
X0134242Y0091806D02*
X0122431Y0091806D01*
X0122431Y0092789D02*
X0134242Y0092789D01*
X0134242Y0093771D02*
X0122431Y0093771D01*
X0122431Y0094754D02*
X0134242Y0094754D01*
X0134242Y0095737D02*
X0122431Y0095737D01*
X0122431Y0096720D02*
X0134242Y0096720D01*
X0134242Y0097702D02*
X0122431Y0097702D01*
X0122431Y0098685D02*
X0134290Y0098685D01*
X0135273Y0099668D02*
X0122700Y0099668D01*
X0123317Y0100651D02*
X0136256Y0100651D01*
X0137239Y0101633D02*
X0123523Y0101633D01*
X0123420Y0102616D02*
X0138956Y0102616D01*
X0138956Y0103599D02*
X0122951Y0103599D01*
X0121645Y0104582D02*
X0138956Y0104582D01*
X0138956Y0105565D02*
X0120463Y0105565D01*
X0120463Y0106547D02*
X0138956Y0106547D01*
X0138956Y0107530D02*
X0120463Y0107530D01*
X0120463Y0108513D02*
X0138956Y0108513D01*
X0138956Y0109496D02*
X0135799Y0109496D01*
X0135915Y0110478D02*
X0138956Y0110478D01*
X0139213Y0114751D02*
X0135915Y0114751D01*
X0135915Y0114772D01*
X0135149Y0115538D01*
X0135915Y0116304D01*
X0135915Y0116424D01*
X0137548Y0116424D01*
X0137570Y0116414D01*
X0138788Y0116414D01*
X0139913Y0116880D01*
X0140774Y0117741D01*
X0141240Y0118866D01*
X0141240Y0118910D01*
X0143460Y0116690D01*
X0146233Y0116690D01*
X0146233Y0115547D01*
X0147098Y0114682D01*
X0156820Y0114682D01*
X0157685Y0115547D01*
X0157685Y0121444D01*
X0158680Y0121444D01*
X0158831Y0121595D01*
X0158831Y0115547D01*
X0158947Y0115431D01*
X0158947Y0104353D01*
X0156172Y0101578D01*
X0155797Y0100673D01*
X0155797Y0088835D01*
X0154811Y0088835D01*
X0155019Y0089339D01*
X0155019Y0090556D01*
X0154553Y0091681D01*
X0154319Y0091916D01*
X0154553Y0092151D01*
X0155019Y0093276D01*
X0155019Y0094493D01*
X0154553Y0095618D01*
X0153692Y0096479D01*
X0152568Y0096945D01*
X0151350Y0096945D01*
X0150225Y0096479D01*
X0150091Y0096345D01*
X0146909Y0096345D01*
X0146909Y0114494D01*
X0146044Y0115359D01*
X0139821Y0115359D01*
X0139213Y0114751D01*
X0135915Y0116375D02*
X0146233Y0116375D01*
X0146388Y0115392D02*
X0135295Y0115392D01*
X0132274Y0112782D02*
X0142933Y0112782D01*
X0146909Y0112444D02*
X0158947Y0112444D01*
X0158947Y0113427D02*
X0146909Y0113427D01*
X0146909Y0114409D02*
X0158947Y0114409D01*
X0158947Y0115392D02*
X0157530Y0115392D01*
X0157685Y0116375D02*
X0158831Y0116375D01*
X0158831Y0117358D02*
X0157685Y0117358D01*
X0157685Y0118340D02*
X0158831Y0118340D01*
X0158831Y0119323D02*
X0157685Y0119323D01*
X0157685Y0120306D02*
X0158831Y0120306D01*
X0158831Y0121289D02*
X0157685Y0121289D01*
X0157864Y0123412D02*
X0155896Y0123412D01*
X0155108Y0122625D01*
X0155108Y0118659D01*
X0151959Y0118659D02*
X0151959Y0127904D01*
X0151994Y0127940D01*
X0149990Y0125220D02*
X0140498Y0125220D01*
X0139515Y0126203D02*
X0144143Y0126203D01*
X0143671Y0127185D02*
X0138532Y0127185D01*
X0137550Y0128168D02*
X0143671Y0128168D01*
X0143671Y0129151D02*
X0136624Y0129151D01*
X0136624Y0130134D02*
X0143671Y0130134D01*
X0143671Y0131116D02*
X0136624Y0131116D01*
X0136624Y0132099D02*
X0143671Y0132099D01*
X0143671Y0133082D02*
X0136624Y0133082D01*
X0136624Y0134065D02*
X0143671Y0134065D01*
X0143671Y0135047D02*
X0136624Y0135047D01*
X0136491Y0136030D02*
X0143804Y0136030D01*
X0142749Y0140944D02*
X0158356Y0140944D01*
X0158356Y0139961D02*
X0120463Y0139961D01*
X0120463Y0138978D02*
X0158356Y0138978D01*
X0158356Y0137996D02*
X0120463Y0137996D01*
X0120463Y0137013D02*
X0158356Y0137013D01*
X0158848Y0136030D02*
X0153491Y0136030D01*
X0153624Y0135047D02*
X0158848Y0135047D01*
X0158848Y0134065D02*
X0153624Y0134065D01*
X0153624Y0133082D02*
X0158848Y0133082D01*
X0158848Y0132099D02*
X0153624Y0132099D01*
X0160817Y0126365D02*
X0160817Y0138766D01*
X0161801Y0139751D01*
X0158356Y0141927D02*
X0144357Y0141927D01*
X0145340Y0142910D02*
X0158738Y0142910D01*
X0164864Y0142910D02*
X0166612Y0142910D01*
X0178534Y0146050D02*
X0179518Y0147034D01*
X0182077Y0147034D01*
X0182077Y0139160D02*
X0180502Y0137585D01*
X0180502Y0126365D01*
X0176733Y0122596D01*
X0176733Y0112782D01*
X0176733Y0109633D02*
X0184833Y0109633D01*
X0185423Y0110223D01*
X0189065Y0110478D02*
X0204616Y0110478D01*
X0204616Y0109496D02*
X0189065Y0109496D01*
X0189065Y0108513D02*
X0204616Y0108513D01*
X0204616Y0107530D02*
X0189065Y0107530D01*
X0189065Y0106547D02*
X0204616Y0106547D01*
X0204616Y0105565D02*
X0189065Y0105565D01*
X0189065Y0104582D02*
X0204616Y0104582D01*
X0204616Y0103599D02*
X0189065Y0103599D01*
X0189065Y0102616D02*
X0204616Y0102616D01*
X0204616Y0101633D02*
X0188424Y0101633D01*
X0188299Y0101759D02*
X0189065Y0102525D01*
X0189065Y0112803D01*
X0188299Y0113570D01*
X0189065Y0114336D01*
X0189065Y0114455D01*
X0190443Y0114455D01*
X0190443Y0112761D01*
X0191308Y0111896D01*
X0196468Y0111896D01*
X0197333Y0112761D01*
X0197333Y0118062D01*
X0200124Y0120853D01*
X0203786Y0120853D01*
X0204616Y0121197D01*
X0204616Y0071282D01*
X0203979Y0070645D01*
X0203979Y0072241D01*
X0202021Y0074199D01*
X0203979Y0076158D01*
X0203979Y0080115D01*
X0202021Y0082073D01*
X0203979Y0084032D01*
X0203979Y0087989D01*
X0202021Y0089948D01*
X0203979Y0091906D01*
X0203979Y0095863D01*
X0201181Y0098661D01*
X0197224Y0098661D01*
X0194426Y0095863D01*
X0194426Y0091906D01*
X0196385Y0089948D01*
X0194426Y0087989D01*
X0194426Y0087979D01*
X0194113Y0087979D01*
X0187392Y0094700D01*
X0187392Y0094967D01*
X0188200Y0094967D01*
X0189065Y0095832D01*
X0189065Y0100992D01*
X0188299Y0101759D01*
X0189065Y0100651D02*
X0204616Y0100651D01*
X0204616Y0099668D02*
X0189065Y0099668D01*
X0189065Y0098685D02*
X0204616Y0098685D01*
X0204616Y0097702D02*
X0202140Y0097702D01*
X0203122Y0096720D02*
X0204616Y0096720D01*
X0204616Y0095737D02*
X0203979Y0095737D01*
X0203979Y0094754D02*
X0204616Y0094754D01*
X0204616Y0093771D02*
X0203979Y0093771D01*
X0203979Y0092789D02*
X0204616Y0092789D01*
X0204616Y0091806D02*
X0203879Y0091806D01*
X0204616Y0090823D02*
X0202896Y0090823D01*
X0202128Y0089840D02*
X0204616Y0089840D01*
X0204616Y0088858D02*
X0203111Y0088858D01*
X0203979Y0087875D02*
X0204616Y0087875D01*
X0204616Y0086892D02*
X0203979Y0086892D01*
X0203979Y0085909D02*
X0204616Y0085909D01*
X0204616Y0084927D02*
X0203979Y0084927D01*
X0203891Y0083944D02*
X0204616Y0083944D01*
X0204616Y0082961D02*
X0202908Y0082961D01*
X0202116Y0081978D02*
X0204616Y0081978D01*
X0204616Y0080995D02*
X0203099Y0080995D01*
X0203979Y0080013D02*
X0204616Y0080013D01*
X0204616Y0079030D02*
X0203979Y0079030D01*
X0203979Y0078047D02*
X0204616Y0078047D01*
X0204616Y0077064D02*
X0203979Y0077064D01*
X0203903Y0076082D02*
X0204616Y0076082D01*
X0204616Y0075099D02*
X0202920Y0075099D01*
X0202104Y0074116D02*
X0204616Y0074116D01*
X0204616Y0073133D02*
X0203087Y0073133D01*
X0203979Y0072151D02*
X0204616Y0072151D01*
X0204502Y0071168D02*
X0203979Y0071168D01*
X0187392Y0070185D02*
X0181585Y0070185D01*
X0181585Y0069202D02*
X0187392Y0069202D01*
X0187392Y0068220D02*
X0181585Y0068220D01*
X0181585Y0067237D02*
X0187392Y0067237D01*
X0187392Y0066254D02*
X0181585Y0066254D01*
X0180748Y0065271D02*
X0187392Y0065271D01*
X0187392Y0064288D02*
X0174359Y0064288D01*
X0173376Y0063306D02*
X0187392Y0063306D01*
X0187392Y0062323D02*
X0172394Y0062323D01*
X0171411Y0061340D02*
X0187392Y0061340D01*
X0187392Y0060357D02*
X0170428Y0060357D01*
X0169445Y0059375D02*
X0187392Y0059375D01*
X0187392Y0058392D02*
X0160128Y0058392D01*
X0160128Y0057409D02*
X0187392Y0057409D01*
X0187392Y0056426D02*
X0160128Y0056426D01*
X0160128Y0055444D02*
X0187392Y0055444D01*
X0187392Y0054461D02*
X0160128Y0054461D01*
X0159703Y0053478D02*
X0187392Y0053478D01*
X0187392Y0052495D02*
X0154692Y0052495D01*
X0151959Y0055499D02*
X0151959Y0059436D01*
X0152943Y0060420D01*
X0167707Y0060420D01*
X0173612Y0066325D01*
X0173612Y0080105D01*
X0176733Y0083225D01*
X0176733Y0090735D01*
X0174764Y0087875D02*
X0173433Y0087875D01*
X0173433Y0086892D02*
X0174764Y0086892D01*
X0174764Y0085909D02*
X0173433Y0085909D01*
X0173433Y0084927D02*
X0174764Y0084927D01*
X0174667Y0083944D02*
X0173433Y0083944D01*
X0173433Y0082961D02*
X0173684Y0082961D01*
X0170856Y0084859D02*
X0170856Y0066522D01*
X0166723Y0062388D01*
X0151959Y0062388D01*
X0149990Y0060420D01*
X0149990Y0056483D01*
X0147037Y0053530D01*
X0143986Y0053530D01*
X0143986Y0051562D02*
X0148022Y0051562D01*
X0151959Y0055499D01*
X0155896Y0056483D02*
X0156486Y0056483D01*
X0155896Y0056483D02*
X0149006Y0049593D01*
X0143986Y0049593D01*
X0143986Y0047625D02*
X0149597Y0047625D01*
X0156486Y0040735D01*
X0159792Y0043650D02*
X0187392Y0043650D01*
X0187392Y0042668D02*
X0160128Y0042668D01*
X0160128Y0041685D02*
X0174963Y0041685D01*
X0175931Y0042037D02*
X0172890Y0040930D01*
X0170411Y0038850D01*
X0168793Y0036048D01*
X0168793Y0036048D01*
X0168231Y0032861D01*
X0168793Y0029674D01*
X0170411Y0026871D01*
X0172890Y0024791D01*
X0172890Y0024791D01*
X0175931Y0023685D01*
X0178326Y0023685D01*
X0179167Y0023685D01*
X0179167Y0023685D01*
X0182208Y0024791D01*
X0184687Y0026871D01*
X0184687Y0026871D01*
X0184687Y0026871D01*
X0186305Y0029674D01*
X0186867Y0032861D01*
X0186305Y0036048D01*
X0184687Y0038850D01*
X0184687Y0038850D01*
X0182208Y0040930D01*
X0179167Y0042037D01*
X0175931Y0042037D01*
X0172890Y0040930D02*
X0172890Y0040930D01*
X0172618Y0040702D02*
X0160128Y0040702D01*
X0160128Y0039719D02*
X0171447Y0039719D01*
X0170411Y0038850D02*
X0170411Y0038850D01*
X0170411Y0038850D01*
X0170346Y0038737D02*
X0160128Y0038737D01*
X0160388Y0037754D02*
X0169778Y0037754D01*
X0169211Y0036771D02*
X0161346Y0036771D01*
X0162536Y0035788D02*
X0168748Y0035788D01*
X0168574Y0034806D02*
X0162687Y0034806D01*
X0162687Y0033823D02*
X0168401Y0033823D01*
X0168231Y0032861D02*
X0168231Y0032861D01*
X0168235Y0032840D02*
X0162687Y0032840D01*
X0162687Y0031857D02*
X0168408Y0031857D01*
X0168582Y0030875D02*
X0162687Y0030875D01*
X0162495Y0029892D02*
X0168755Y0029892D01*
X0168793Y0029674D02*
X0168793Y0029674D01*
X0169235Y0028909D02*
X0155010Y0028909D01*
X0155802Y0029892D02*
X0155990Y0029892D01*
X0155832Y0027926D02*
X0169802Y0027926D01*
X0170370Y0026943D02*
X0155994Y0026943D01*
X0155994Y0025961D02*
X0171497Y0025961D01*
X0170411Y0026871D02*
X0170411Y0026871D01*
X0172668Y0024978D02*
X0155994Y0024978D01*
X0155994Y0023995D02*
X0175078Y0023995D01*
X0180021Y0023995D02*
X0190591Y0023995D01*
X0190089Y0024978D02*
X0182431Y0024978D01*
X0182208Y0024791D02*
X0182208Y0024791D01*
X0183602Y0025961D02*
X0190089Y0025961D01*
X0190089Y0026943D02*
X0184729Y0026943D01*
X0185296Y0027926D02*
X0190089Y0027926D01*
X0190213Y0028909D02*
X0185864Y0028909D01*
X0186305Y0029674D02*
X0186305Y0029674D01*
X0186344Y0029892D02*
X0189231Y0029892D01*
X0188248Y0030875D02*
X0186517Y0030875D01*
X0186690Y0031857D02*
X0187392Y0031857D01*
X0187392Y0032840D02*
X0186864Y0032840D01*
X0186867Y0032861D02*
X0186867Y0032861D01*
X0186698Y0033823D02*
X0187392Y0033823D01*
X0187392Y0034806D02*
X0186524Y0034806D01*
X0186351Y0035788D02*
X0187392Y0035788D01*
X0187392Y0036771D02*
X0185888Y0036771D01*
X0186305Y0036048D02*
X0186305Y0036048D01*
X0185320Y0037754D02*
X0187392Y0037754D01*
X0187392Y0038737D02*
X0184753Y0038737D01*
X0183652Y0039719D02*
X0187392Y0039719D01*
X0187392Y0040702D02*
X0182480Y0040702D01*
X0182208Y0040930D02*
X0182208Y0040930D01*
X0180135Y0041685D02*
X0187392Y0041685D01*
X0187392Y0044633D02*
X0158947Y0044633D01*
X0159715Y0045616D02*
X0159950Y0045616D01*
X0159861Y0051513D02*
X0159804Y0051513D01*
X0166497Y0051513D02*
X0166719Y0051513D01*
X0168695Y0051513D02*
X0187392Y0051513D01*
X0187392Y0050530D02*
X0170114Y0050530D01*
X0170631Y0049547D02*
X0187392Y0049547D01*
X0187392Y0048564D02*
X0170767Y0048564D01*
X0170594Y0047581D02*
X0187392Y0047581D01*
X0187392Y0046599D02*
X0170025Y0046599D01*
X0168479Y0045616D02*
X0187392Y0045616D01*
X0189360Y0032546D02*
X0189360Y0086995D01*
X0181486Y0094869D01*
X0181486Y0101759D01*
X0179911Y0103333D01*
X0176733Y0103333D01*
X0176733Y0106483D02*
X0184045Y0106483D01*
X0185423Y0105105D01*
X0185423Y0098412D02*
X0185423Y0093885D01*
X0193297Y0086010D01*
X0199203Y0086010D01*
X0195295Y0088858D02*
X0193234Y0088858D01*
X0192251Y0089840D02*
X0196278Y0089840D01*
X0195509Y0090823D02*
X0191269Y0090823D01*
X0190286Y0091806D02*
X0194527Y0091806D01*
X0194426Y0092789D02*
X0189303Y0092789D01*
X0188320Y0093771D02*
X0194426Y0093771D01*
X0194426Y0094754D02*
X0187392Y0094754D01*
X0188970Y0095737D02*
X0194426Y0095737D01*
X0195283Y0096720D02*
X0189065Y0096720D01*
X0189065Y0097702D02*
X0196266Y0097702D01*
X0184833Y0088570D02*
X0184833Y0074199D01*
X0181643Y0071168D02*
X0181330Y0071168D01*
X0176319Y0065271D02*
X0175342Y0065271D01*
X0167707Y0066325D02*
X0165738Y0064357D01*
X0150974Y0064357D01*
X0148022Y0061404D01*
X0140935Y0056426D02*
X0131486Y0056426D01*
X0130637Y0055444D02*
X0140935Y0055444D01*
X0140935Y0054461D02*
X0131486Y0054461D01*
X0131486Y0053478D02*
X0140935Y0053478D01*
X0140935Y0052495D02*
X0131486Y0052495D01*
X0131486Y0051513D02*
X0140935Y0051513D01*
X0140935Y0050530D02*
X0131486Y0050530D01*
X0131486Y0049547D02*
X0140935Y0049547D01*
X0140935Y0048564D02*
X0131486Y0048564D01*
X0128435Y0047625D02*
X0128435Y0042802D01*
X0126368Y0040735D01*
X0122431Y0042703D02*
X0122431Y0046640D01*
X0125384Y0049593D01*
X0128435Y0049593D01*
X0128435Y0051562D02*
X0123415Y0051562D01*
X0122431Y0052546D01*
X0118494Y0052495D02*
X0098809Y0052495D01*
X0098809Y0051513D02*
X0118494Y0051513D01*
X0118494Y0050530D02*
X0098809Y0050530D01*
X0098809Y0049547D02*
X0118494Y0049547D01*
X0118494Y0048564D02*
X0098809Y0048564D01*
X0098809Y0047581D02*
X0118494Y0047581D01*
X0118494Y0046599D02*
X0098809Y0046599D01*
X0098809Y0045616D02*
X0118494Y0045616D01*
X0118494Y0044633D02*
X0098809Y0044633D01*
X0098809Y0043650D02*
X0118494Y0043650D01*
X0118494Y0042668D02*
X0098809Y0042668D01*
X0098809Y0041685D02*
X0118494Y0041685D01*
X0118494Y0040702D02*
X0098809Y0040702D01*
X0098809Y0039719D02*
X0118494Y0039719D01*
X0118494Y0038737D02*
X0098809Y0038737D01*
X0098809Y0037754D02*
X0118494Y0037754D01*
X0118494Y0036771D02*
X0098809Y0036771D01*
X0098809Y0035788D02*
X0118494Y0035788D01*
X0118494Y0034806D02*
X0098809Y0034806D01*
X0098809Y0033823D02*
X0118494Y0033823D01*
X0118494Y0032840D02*
X0098809Y0032840D01*
X0098809Y0031857D02*
X0118494Y0031857D01*
X0118494Y0030892D02*
X0098809Y0030892D01*
X0098809Y0056483D01*
X0118494Y0056483D01*
X0118494Y0030892D01*
X0120463Y0030875D02*
X0120938Y0030875D01*
X0120277Y0029892D02*
X0121738Y0029892D01*
X0124990Y0032861D02*
X0131289Y0039160D01*
X0131289Y0044770D01*
X0133258Y0044770D02*
X0133258Y0034436D01*
X0131683Y0032861D01*
X0135226Y0034436D02*
X0136801Y0032861D01*
X0135226Y0034436D02*
X0135226Y0044770D01*
X0137195Y0044770D02*
X0137195Y0039160D01*
X0143494Y0032861D01*
X0147136Y0032840D02*
X0149104Y0032840D01*
X0149104Y0031857D02*
X0147136Y0031857D01*
X0147136Y0030875D02*
X0149104Y0030875D01*
X0149297Y0029892D02*
X0146747Y0029892D01*
X0149267Y0027926D02*
X0128273Y0027926D01*
X0128632Y0026943D02*
X0149104Y0026943D01*
X0149104Y0025961D02*
X0128632Y0025961D01*
X0128632Y0024978D02*
X0149104Y0024978D01*
X0149104Y0023995D02*
X0128632Y0023995D01*
X0128632Y0023012D02*
X0149104Y0023012D01*
X0149285Y0022030D02*
X0128255Y0022030D01*
X0127451Y0028909D02*
X0150089Y0028909D01*
X0152549Y0032861D02*
X0152549Y0042113D01*
X0149892Y0044770D01*
X0141132Y0044770D01*
X0139163Y0044633D02*
X0139163Y0044633D01*
X0139163Y0043650D02*
X0139203Y0043650D01*
X0139163Y0042668D02*
X0139203Y0042668D01*
X0139163Y0041685D02*
X0150193Y0041685D01*
X0150581Y0040702D02*
X0139163Y0040702D01*
X0139420Y0039719D02*
X0150581Y0039719D01*
X0150581Y0038737D02*
X0140402Y0038737D01*
X0141385Y0037754D02*
X0150581Y0037754D01*
X0150581Y0036771D02*
X0142368Y0036771D01*
X0146788Y0035788D02*
X0149255Y0035788D01*
X0149104Y0034806D02*
X0147136Y0034806D01*
X0147136Y0033823D02*
X0149104Y0033823D01*
X0140242Y0029892D02*
X0140054Y0029892D01*
X0128430Y0029892D02*
X0128243Y0029892D01*
X0143061Y0042668D02*
X0149211Y0042668D01*
X0139828Y0047581D02*
X0138499Y0047581D01*
X0139124Y0046599D02*
X0139203Y0046599D01*
X0139194Y0045616D02*
X0139133Y0045616D01*
X0128435Y0053530D02*
X0125384Y0053530D01*
X0120463Y0058451D01*
X0108652Y0058451D01*
X0108652Y0101759D01*
X0109474Y0101759D01*
X0109474Y0099375D01*
X0110339Y0098510D01*
X0116964Y0098510D01*
X0117377Y0098924D01*
X0119308Y0098924D01*
X0119854Y0098698D01*
X0120463Y0098698D01*
X0120463Y0098117D01*
X0119457Y0098117D01*
X0118593Y0097252D01*
X0118593Y0088942D01*
X0119457Y0088077D01*
X0120463Y0088077D01*
X0120463Y0084433D01*
X0120228Y0084668D01*
X0119103Y0085134D01*
X0117885Y0085134D01*
X0116760Y0084668D01*
X0115899Y0083807D01*
X0115434Y0082682D01*
X0115434Y0082493D01*
X0113577Y0080636D01*
X0110339Y0080636D01*
X0109474Y0079772D01*
X0109474Y0075753D01*
X0110339Y0074888D01*
X0116964Y0074888D01*
X0117829Y0075753D01*
X0117829Y0077928D01*
X0118913Y0079013D01*
X0119103Y0079013D01*
X0120228Y0079479D01*
X0120463Y0079714D01*
X0120463Y0066717D01*
X0119836Y0066091D01*
X0119371Y0064966D01*
X0119371Y0063748D01*
X0119836Y0062623D01*
X0120463Y0061997D01*
X0120463Y0058451D01*
X0120463Y0059375D02*
X0108652Y0059375D01*
X0108652Y0060357D02*
X0120463Y0060357D01*
X0120463Y0061340D02*
X0108652Y0061340D01*
X0108652Y0062323D02*
X0120137Y0062323D01*
X0119554Y0063306D02*
X0108652Y0063306D01*
X0108652Y0064288D02*
X0119371Y0064288D01*
X0119497Y0065271D02*
X0108652Y0065271D01*
X0108652Y0066254D02*
X0120000Y0066254D01*
X0120463Y0067237D02*
X0108652Y0067237D01*
X0108652Y0068220D02*
X0120463Y0068220D01*
X0120463Y0069202D02*
X0108652Y0069202D01*
X0108652Y0070185D02*
X0120463Y0070185D01*
X0120463Y0071168D02*
X0108652Y0071168D01*
X0108652Y0072151D02*
X0120463Y0072151D01*
X0120463Y0073133D02*
X0108652Y0073133D01*
X0108652Y0074116D02*
X0120463Y0074116D01*
X0120463Y0075099D02*
X0117174Y0075099D01*
X0117829Y0076082D02*
X0120463Y0076082D01*
X0120463Y0077064D02*
X0117829Y0077064D01*
X0117948Y0078047D02*
X0120463Y0078047D01*
X0120463Y0079030D02*
X0119144Y0079030D01*
X0114919Y0081978D02*
X0108652Y0081978D01*
X0108652Y0080995D02*
X0113936Y0080995D01*
X0115549Y0082961D02*
X0108652Y0082961D01*
X0108652Y0083944D02*
X0116036Y0083944D01*
X0117384Y0084927D02*
X0108652Y0084927D01*
X0108652Y0085909D02*
X0120463Y0085909D01*
X0120463Y0084927D02*
X0119604Y0084927D01*
X0120463Y0086892D02*
X0108652Y0086892D01*
X0108652Y0087875D02*
X0120463Y0087875D01*
X0118677Y0088858D02*
X0108652Y0088858D01*
X0108652Y0089840D02*
X0118593Y0089840D01*
X0118593Y0090823D02*
X0108652Y0090823D01*
X0108652Y0091806D02*
X0118593Y0091806D01*
X0118593Y0092789D02*
X0108652Y0092789D01*
X0108652Y0093771D02*
X0118593Y0093771D01*
X0118593Y0094754D02*
X0108652Y0094754D01*
X0108652Y0095737D02*
X0118593Y0095737D01*
X0118593Y0096720D02*
X0108652Y0096720D01*
X0108652Y0097702D02*
X0119043Y0097702D01*
X0120463Y0098685D02*
X0117139Y0098685D01*
X0118494Y0104582D02*
X0098809Y0104582D01*
X0098809Y0105565D02*
X0118494Y0105565D01*
X0118494Y0106547D02*
X0098809Y0106547D01*
X0098809Y0107530D02*
X0118494Y0107530D01*
X0118494Y0108513D02*
X0098809Y0108513D01*
X0098809Y0109496D02*
X0118494Y0109496D01*
X0118494Y0110478D02*
X0098809Y0110478D01*
X0098809Y0111461D02*
X0118494Y0111461D01*
X0118494Y0112444D02*
X0098809Y0112444D01*
X0098809Y0113427D02*
X0118494Y0113427D01*
X0118494Y0114409D02*
X0098809Y0114409D01*
X0098809Y0115392D02*
X0118494Y0115392D01*
X0118494Y0116375D02*
X0098809Y0116375D01*
X0098809Y0117358D02*
X0118494Y0117358D01*
X0118494Y0118340D02*
X0098809Y0118340D01*
X0098809Y0119323D02*
X0118494Y0119323D01*
X0118494Y0120306D02*
X0098809Y0120306D01*
X0098809Y0121289D02*
X0118494Y0121289D01*
X0118494Y0122272D02*
X0098809Y0122272D01*
X0098809Y0123254D02*
X0118494Y0123254D01*
X0118494Y0124237D02*
X0098809Y0124237D01*
X0098809Y0125220D02*
X0118494Y0125220D01*
X0118494Y0126203D02*
X0098809Y0126203D01*
X0098809Y0127185D02*
X0118494Y0127185D01*
X0118494Y0128168D02*
X0098809Y0128168D01*
X0098809Y0129151D02*
X0118494Y0129151D01*
X0118494Y0130134D02*
X0098809Y0130134D01*
X0098809Y0131116D02*
X0118494Y0131116D01*
X0118494Y0132099D02*
X0098809Y0132099D01*
X0098809Y0133082D02*
X0118494Y0133082D01*
X0118494Y0134065D02*
X0065345Y0134065D01*
X0065345Y0135047D02*
X0118494Y0135047D01*
X0118494Y0136030D02*
X0075994Y0136030D01*
X0081909Y0130134D02*
X0065345Y0130134D01*
X0065345Y0131116D02*
X0082891Y0131116D01*
X0083874Y0132099D02*
X0065345Y0132099D01*
X0065345Y0133082D02*
X0084857Y0133082D01*
X0085675Y0131116D02*
X0096841Y0131116D01*
X0096841Y0130134D02*
X0084692Y0130134D01*
X0083710Y0129151D02*
X0086016Y0129151D01*
X0085033Y0128168D02*
X0082727Y0128168D01*
X0081744Y0127185D02*
X0084050Y0127185D01*
X0083068Y0126203D02*
X0080761Y0126203D01*
X0079779Y0125220D02*
X0082085Y0125220D01*
X0081102Y0124237D02*
X0078796Y0124237D01*
X0077813Y0123254D02*
X0080119Y0123254D01*
X0079137Y0122272D02*
X0076830Y0122272D01*
X0076012Y0124237D02*
X0065345Y0124237D01*
X0065345Y0125220D02*
X0076995Y0125220D01*
X0077978Y0126203D02*
X0065345Y0126203D01*
X0065345Y0127185D02*
X0078960Y0127185D01*
X0079943Y0128168D02*
X0065345Y0128168D01*
X0065345Y0129151D02*
X0080926Y0129151D01*
X0084869Y0125220D02*
X0096841Y0125220D01*
X0096841Y0126203D02*
X0085852Y0126203D01*
X0086834Y0127185D02*
X0096841Y0127185D01*
X0096841Y0127349D02*
X0096841Y0084042D01*
X0065345Y0084042D01*
X0065345Y0105696D01*
X0086998Y0127349D01*
X0096841Y0127349D01*
X0096841Y0124237D02*
X0083886Y0124237D01*
X0082903Y0123254D02*
X0096841Y0123254D01*
X0096841Y0122272D02*
X0081921Y0122272D01*
X0080938Y0121289D02*
X0096841Y0121289D01*
X0096841Y0120306D02*
X0079955Y0120306D01*
X0078972Y0119323D02*
X0096841Y0119323D01*
X0096841Y0118340D02*
X0077989Y0118340D01*
X0077007Y0117358D02*
X0096841Y0117358D01*
X0096841Y0116375D02*
X0076024Y0116375D01*
X0075041Y0115392D02*
X0096841Y0115392D01*
X0096841Y0114409D02*
X0074058Y0114409D01*
X0073076Y0113427D02*
X0096841Y0113427D01*
X0096841Y0112444D02*
X0095590Y0112444D01*
X0096018Y0112016D02*
X0095153Y0112881D01*
X0088528Y0112881D01*
X0088115Y0112467D01*
X0086184Y0112467D01*
X0085638Y0112693D01*
X0084421Y0112693D01*
X0083296Y0112227D01*
X0082435Y0111366D01*
X0081969Y0110241D01*
X0081969Y0109024D01*
X0082435Y0107899D01*
X0083296Y0107038D01*
X0084421Y0106572D01*
X0085638Y0106572D01*
X0086763Y0107038D01*
X0087271Y0107546D01*
X0088115Y0107546D01*
X0088528Y0107133D01*
X0095153Y0107133D01*
X0096018Y0107997D01*
X0096018Y0112016D01*
X0096018Y0111461D02*
X0096841Y0111461D01*
X0096841Y0110478D02*
X0096018Y0110478D01*
X0096018Y0109496D02*
X0096841Y0109496D01*
X0096841Y0108513D02*
X0096018Y0108513D01*
X0095550Y0107530D02*
X0096841Y0107530D01*
X0096841Y0106547D02*
X0066196Y0106547D01*
X0065345Y0105565D02*
X0096841Y0105565D01*
X0096841Y0104582D02*
X0065345Y0104582D01*
X0065345Y0103599D02*
X0096841Y0103599D01*
X0096841Y0102616D02*
X0065345Y0102616D01*
X0065345Y0101633D02*
X0096841Y0101633D01*
X0096841Y0100651D02*
X0065345Y0100651D01*
X0065345Y0099668D02*
X0096841Y0099668D01*
X0096841Y0098685D02*
X0065345Y0098685D01*
X0065345Y0097702D02*
X0096841Y0097702D01*
X0096841Y0096720D02*
X0065345Y0096720D01*
X0065345Y0095737D02*
X0096841Y0095737D01*
X0096841Y0094754D02*
X0065345Y0094754D01*
X0065345Y0093771D02*
X0096841Y0093771D01*
X0096841Y0092789D02*
X0065345Y0092789D01*
X0065345Y0091806D02*
X0096841Y0091806D01*
X0096841Y0090823D02*
X0065345Y0090823D01*
X0065345Y0089840D02*
X0096841Y0089840D01*
X0096841Y0088858D02*
X0065345Y0088858D01*
X0065345Y0087875D02*
X0096841Y0087875D01*
X0096841Y0086892D02*
X0065345Y0086892D01*
X0065345Y0085909D02*
X0096841Y0085909D01*
X0096841Y0084927D02*
X0065345Y0084927D01*
X0064529Y0082073D02*
X0097656Y0082073D01*
X0064529Y0082073D01*
X0063376Y0079030D02*
X0056994Y0079030D01*
X0056994Y0078047D02*
X0063376Y0078047D01*
X0063376Y0077064D02*
X0056994Y0077064D01*
X0056994Y0076082D02*
X0063376Y0076082D01*
X0063376Y0075099D02*
X0056994Y0075099D01*
X0056994Y0074116D02*
X0063376Y0074116D01*
X0063376Y0073133D02*
X0056994Y0073133D01*
X0056994Y0072151D02*
X0063376Y0072151D01*
X0063376Y0071168D02*
X0056994Y0071168D01*
X0056994Y0070185D02*
X0063376Y0070185D01*
X0063376Y0069202D02*
X0056994Y0069202D01*
X0056994Y0068220D02*
X0063376Y0068220D01*
X0063376Y0067237D02*
X0056994Y0067237D01*
X0056994Y0066254D02*
X0063376Y0066254D01*
X0063376Y0065271D02*
X0056994Y0065271D01*
X0056994Y0064288D02*
X0063376Y0064288D01*
X0063376Y0063306D02*
X0056994Y0063306D01*
X0056994Y0062323D02*
X0063376Y0062323D01*
X0063376Y0061340D02*
X0056994Y0061340D01*
X0056994Y0060357D02*
X0063376Y0060357D01*
X0063376Y0059375D02*
X0056994Y0059375D01*
X0056994Y0058392D02*
X0063376Y0058392D01*
X0063603Y0057409D02*
X0056994Y0057409D01*
X0056994Y0056426D02*
X0064586Y0056426D01*
X0065568Y0055444D02*
X0056994Y0055444D01*
X0056994Y0054461D02*
X0066551Y0054461D01*
X0067534Y0053478D02*
X0056994Y0053478D01*
X0056994Y0052495D02*
X0068517Y0052495D01*
X0069500Y0051513D02*
X0056994Y0051513D01*
X0056994Y0050530D02*
X0070482Y0050530D01*
X0071465Y0049547D02*
X0056994Y0049547D01*
X0056994Y0048564D02*
X0072448Y0048564D01*
X0073431Y0047581D02*
X0056994Y0047581D01*
X0056994Y0046599D02*
X0074413Y0046599D01*
X0075396Y0045616D02*
X0056994Y0045616D01*
X0056994Y0044633D02*
X0076379Y0044633D01*
X0077362Y0043650D02*
X0056994Y0043650D01*
X0056994Y0042668D02*
X0078344Y0042668D01*
X0079327Y0041685D02*
X0071868Y0041685D01*
X0073941Y0040930D02*
X0073941Y0040930D01*
X0074213Y0040702D02*
X0080310Y0040702D01*
X0081293Y0039719D02*
X0075384Y0039719D01*
X0076485Y0038737D02*
X0082275Y0038737D01*
X0083258Y0037754D02*
X0077053Y0037754D01*
X0077620Y0036771D02*
X0084241Y0036771D01*
X0085224Y0035788D02*
X0078083Y0035788D01*
X0078038Y0036048D02*
X0078038Y0036048D01*
X0078257Y0034806D02*
X0085906Y0034806D01*
X0086071Y0033823D02*
X0078430Y0033823D01*
X0078599Y0032861D02*
X0078599Y0032861D01*
X0078596Y0032840D02*
X0086628Y0032840D01*
X0086042Y0037754D02*
X0087663Y0037754D01*
X0087663Y0038737D02*
X0085059Y0038737D01*
X0084077Y0039719D02*
X0087663Y0039719D01*
X0087663Y0040702D02*
X0083094Y0040702D01*
X0082111Y0041685D02*
X0088199Y0041685D01*
X0098809Y0053478D02*
X0118494Y0053478D01*
X0118494Y0054461D02*
X0098809Y0054461D01*
X0098809Y0055444D02*
X0118494Y0055444D01*
X0118494Y0056426D02*
X0098809Y0056426D01*
X0112589Y0054514D02*
X0116526Y0054514D01*
X0116427Y0054613D01*
X0115191Y0054140D01*
X0122431Y0059267D02*
X0122431Y0059605D01*
X0125384Y0056652D01*
X0125384Y0056403D01*
X0126249Y0055538D01*
X0126498Y0055538D01*
X0126537Y0055499D01*
X0129250Y0055499D01*
X0126199Y0055499D01*
X0122431Y0059267D01*
X0122431Y0059375D02*
X0122661Y0059375D01*
X0123306Y0058392D02*
X0123644Y0058392D01*
X0124289Y0057409D02*
X0124627Y0057409D01*
X0125272Y0056426D02*
X0125384Y0056426D01*
X0127352Y0057467D02*
X0122431Y0062388D01*
X0122431Y0064357D01*
X0126368Y0064357D02*
X0126368Y0062388D01*
X0128435Y0060322D01*
X0131289Y0060322D01*
X0128435Y0057467D02*
X0127352Y0057467D01*
X0135226Y0061340D02*
X0135226Y0061340D01*
X0135226Y0062323D02*
X0135226Y0062323D01*
X0135226Y0063306D02*
X0135226Y0063306D01*
X0135226Y0064288D02*
X0135126Y0064288D01*
X0135226Y0065271D02*
X0134143Y0065271D01*
X0156722Y0072151D02*
X0159006Y0072151D01*
X0167707Y0066325D02*
X0167707Y0084859D01*
X0155797Y0088858D02*
X0154820Y0088858D01*
X0155019Y0089840D02*
X0155797Y0089840D01*
X0155797Y0090823D02*
X0154909Y0090823D01*
X0154429Y0091806D02*
X0155797Y0091806D01*
X0155797Y0092789D02*
X0154818Y0092789D01*
X0155019Y0093771D02*
X0155797Y0093771D01*
X0155797Y0094754D02*
X0154911Y0094754D01*
X0154435Y0095737D02*
X0155797Y0095737D01*
X0155797Y0096720D02*
X0153112Y0096720D01*
X0150806Y0096720D02*
X0146909Y0096720D01*
X0146909Y0097702D02*
X0155797Y0097702D01*
X0155797Y0098685D02*
X0146909Y0098685D01*
X0146909Y0099668D02*
X0155797Y0099668D01*
X0155797Y0100651D02*
X0146909Y0100651D01*
X0146909Y0101633D02*
X0156228Y0101633D01*
X0157211Y0102616D02*
X0146909Y0102616D01*
X0146909Y0103599D02*
X0158193Y0103599D01*
X0158947Y0104582D02*
X0146909Y0104582D01*
X0146909Y0105565D02*
X0158947Y0105565D01*
X0158947Y0106547D02*
X0146909Y0106547D01*
X0146909Y0107530D02*
X0158947Y0107530D01*
X0158947Y0108513D02*
X0146909Y0108513D01*
X0146909Y0109496D02*
X0158947Y0109496D01*
X0158947Y0110478D02*
X0146909Y0110478D01*
X0146909Y0111461D02*
X0158947Y0111461D01*
X0163868Y0115392D02*
X0165285Y0115392D01*
X0165130Y0116375D02*
X0163984Y0116375D01*
X0163984Y0117358D02*
X0165130Y0117358D01*
X0165130Y0118340D02*
X0163984Y0118340D01*
X0163984Y0119323D02*
X0165130Y0119323D01*
X0165130Y0120306D02*
X0163984Y0120306D01*
X0163984Y0121289D02*
X0165130Y0121289D01*
X0165632Y0122272D02*
X0164141Y0122272D01*
X0165123Y0123254D02*
X0165738Y0123254D01*
X0167707Y0125971D02*
X0167707Y0118659D01*
X0173433Y0119323D02*
X0174764Y0119323D01*
X0174764Y0120306D02*
X0174303Y0120306D01*
X0167707Y0125971D02*
X0169675Y0127940D01*
X0160817Y0126365D02*
X0157864Y0123412D01*
X0149990Y0123254D02*
X0142463Y0123254D01*
X0141481Y0124237D02*
X0149990Y0124237D01*
X0146734Y0122272D02*
X0143446Y0122272D01*
X0144429Y0121289D02*
X0146233Y0121289D01*
X0144275Y0118659D02*
X0131648Y0131286D01*
X0126671Y0132099D02*
X0120463Y0132099D01*
X0120463Y0131116D02*
X0121355Y0131116D01*
X0120955Y0130134D02*
X0120463Y0130134D01*
X0120463Y0129151D02*
X0120955Y0129151D01*
X0120955Y0128168D02*
X0120463Y0128168D01*
X0120463Y0127185D02*
X0120955Y0127185D01*
X0120955Y0126203D02*
X0120463Y0126203D01*
X0120463Y0125220D02*
X0120955Y0125220D01*
X0120463Y0124237D02*
X0135913Y0124237D01*
X0136896Y0123254D02*
X0120463Y0123254D01*
X0120463Y0122272D02*
X0129439Y0122272D01*
X0128632Y0121289D02*
X0120463Y0121289D01*
X0120463Y0120306D02*
X0128632Y0120306D01*
X0128632Y0119323D02*
X0120463Y0119323D01*
X0120463Y0118340D02*
X0128632Y0118340D01*
X0128632Y0117358D02*
X0120463Y0117358D01*
X0120463Y0116375D02*
X0128632Y0116375D01*
X0129252Y0115392D02*
X0120463Y0115392D01*
X0120463Y0114409D02*
X0128632Y0114409D01*
X0128632Y0113427D02*
X0120463Y0113427D01*
X0120463Y0112444D02*
X0128632Y0112444D01*
X0128632Y0111461D02*
X0120463Y0111461D01*
X0120463Y0110478D02*
X0128632Y0110478D01*
X0128748Y0109496D02*
X0120463Y0109496D01*
X0115191Y0110007D02*
X0114656Y0109731D01*
X0112589Y0109633D01*
X0109474Y0101633D02*
X0108652Y0101633D01*
X0108652Y0100651D02*
X0109474Y0100651D01*
X0109474Y0099668D02*
X0108652Y0099668D01*
X0108652Y0098685D02*
X0110165Y0098685D01*
X0106683Y0083510D02*
X0098809Y0083510D01*
X0098809Y0083227D01*
X0097656Y0082073D01*
X0098809Y0080920D01*
X0098809Y0080636D01*
X0106683Y0080636D01*
X0106683Y0083510D01*
X0106683Y0082961D02*
X0098543Y0082961D01*
X0097751Y0081978D02*
X0106683Y0081978D01*
X0106683Y0080995D02*
X0098734Y0080995D01*
X0108652Y0080013D02*
X0109716Y0080013D01*
X0109474Y0079030D02*
X0108652Y0079030D01*
X0108652Y0078047D02*
X0109474Y0078047D01*
X0109474Y0077064D02*
X0108652Y0077064D01*
X0108652Y0076082D02*
X0109474Y0076082D01*
X0110129Y0075099D02*
X0108652Y0075099D01*
X0088131Y0107530D02*
X0087255Y0107530D01*
X0082804Y0107530D02*
X0067179Y0107530D01*
X0068162Y0108513D02*
X0082181Y0108513D01*
X0081969Y0109496D02*
X0069145Y0109496D01*
X0070127Y0110478D02*
X0082067Y0110478D01*
X0082530Y0111461D02*
X0071110Y0111461D01*
X0072093Y0112444D02*
X0083819Y0112444D01*
X0120463Y0133082D02*
X0126671Y0133082D01*
X0126671Y0134065D02*
X0120463Y0134065D01*
X0120463Y0135047D02*
X0126671Y0135047D01*
X0126804Y0136030D02*
X0120463Y0136030D01*
X0120463Y0140944D02*
X0137547Y0140944D01*
X0135939Y0141927D02*
X0120463Y0141927D01*
X0119515Y0154703D02*
X0158720Y0154703D01*
X0189065Y0130134D02*
X0204616Y0130134D01*
X0204616Y0129151D02*
X0196279Y0129151D01*
X0196827Y0128168D02*
X0204616Y0128168D01*
X0204616Y0127185D02*
X0196939Y0127185D01*
X0196691Y0126203D02*
X0199346Y0126203D01*
X0197531Y0125220D02*
X0195951Y0125220D01*
X0196548Y0124237D02*
X0195167Y0124237D01*
X0195167Y0123254D02*
X0195565Y0123254D01*
X0198594Y0119323D02*
X0204616Y0119323D01*
X0204616Y0118340D02*
X0197611Y0118340D01*
X0197333Y0117358D02*
X0204616Y0117358D01*
X0204616Y0116375D02*
X0197333Y0116375D01*
X0197333Y0115392D02*
X0204616Y0115392D01*
X0204616Y0114409D02*
X0197333Y0114409D01*
X0197333Y0113427D02*
X0204616Y0113427D01*
X0204616Y0112444D02*
X0197015Y0112444D01*
X0190760Y0112444D02*
X0189065Y0112444D01*
X0189065Y0111461D02*
X0204616Y0111461D01*
X0204616Y0120306D02*
X0199577Y0120306D01*
X0204178Y0126203D02*
X0204616Y0126203D01*
X0189135Y0129151D02*
X0189065Y0129151D01*
X0185423Y0122034D02*
X0186014Y0121444D01*
X0189065Y0114409D02*
X0190443Y0114409D01*
X0190443Y0113427D02*
X0188441Y0113427D01*
X0179518Y0093885D02*
X0176733Y0093885D01*
X0179518Y0093885D02*
X0184833Y0088570D01*
X0148809Y0118659D02*
X0144275Y0118659D01*
X0142792Y0117358D02*
X0140390Y0117358D01*
X0141022Y0118340D02*
X0141809Y0118340D01*
X0136933Y0122272D02*
X0135108Y0122272D01*
X0134930Y0125220D02*
X0127845Y0125220D01*
X0056994Y0173375D02*
X0211490Y0173375D01*
X0211490Y0174358D02*
X0056994Y0174358D01*
X0202250Y0170427D02*
X0211490Y0170427D01*
X0211490Y0169444D02*
X0203233Y0169444D01*
X0203979Y0168461D02*
X0211490Y0168461D01*
X0211490Y0167479D02*
X0203979Y0167479D01*
X0203979Y0166496D02*
X0211490Y0166496D01*
X0211490Y0165513D02*
X0203979Y0165513D01*
X0204871Y0164530D02*
X0211490Y0164530D01*
X0211490Y0163548D02*
X0205854Y0163548D01*
X0206837Y0162565D02*
X0211490Y0162565D01*
X0166935Y0045616D02*
X0166408Y0045616D01*
X0189360Y0032546D02*
X0195266Y0026640D01*
X0191573Y0023012D02*
X0155994Y0023012D01*
X0155814Y0022030D02*
X0192556Y0022030D01*
X0066695Y0041685D02*
X0056994Y0041685D01*
X0056994Y0040702D02*
X0064351Y0040702D01*
X0063179Y0039719D02*
X0056994Y0039719D01*
X0056994Y0038737D02*
X0062078Y0038737D01*
X0062144Y0038850D02*
X0062144Y0038850D01*
X0062144Y0038850D01*
X0061511Y0037754D02*
X0056994Y0037754D01*
X0056994Y0036771D02*
X0060943Y0036771D01*
X0060526Y0036048D02*
X0060526Y0036048D01*
X0060480Y0035788D02*
X0056994Y0035788D01*
X0056994Y0034806D02*
X0060307Y0034806D01*
X0060133Y0033823D02*
X0056994Y0033823D01*
X0056994Y0032840D02*
X0059967Y0032840D01*
X0059964Y0032861D02*
X0059964Y0032861D01*
X0060141Y0031857D02*
X0056994Y0031857D01*
X0056994Y0030875D02*
X0060314Y0030875D01*
X0060487Y0029892D02*
X0056994Y0029892D01*
X0056994Y0028909D02*
X0060967Y0028909D01*
X0060526Y0029674D02*
X0060526Y0029674D01*
X0061535Y0027926D02*
X0056994Y0027926D01*
X0056994Y0026943D02*
X0062102Y0026943D01*
X0062144Y0026871D02*
X0062144Y0026871D01*
X0063229Y0025961D02*
X0056994Y0025961D01*
X0056994Y0024978D02*
X0064400Y0024978D01*
X0064623Y0024791D02*
X0064623Y0024791D01*
D32*
X0088967Y0034829D03*
X0100778Y0050577D03*
X0104715Y0050577D03*
X0108652Y0050577D03*
X0112589Y0050577D03*
X0112589Y0054514D03*
X0108652Y0054514D03*
X0104715Y0054514D03*
X0100778Y0054514D03*
X0122431Y0052546D03*
X0122431Y0042703D03*
X0126368Y0040735D03*
X0126368Y0064357D03*
X0122431Y0064357D03*
X0130305Y0064357D03*
X0143986Y0064357D03*
X0167707Y0048609D03*
X0144085Y0086010D03*
X0151959Y0089948D03*
X0151959Y0093885D03*
X0163770Y0097822D03*
X0155896Y0105696D03*
X0138179Y0119475D03*
X0130305Y0105696D03*
X0126368Y0105696D03*
X0126368Y0101759D03*
X0130305Y0101759D03*
X0120463Y0101759D03*
X0112589Y0109633D03*
X0112589Y0113570D03*
X0108652Y0113570D03*
X0104715Y0113570D03*
X0100778Y0113570D03*
X0100778Y0109633D03*
X0104715Y0109633D03*
X0108652Y0109633D03*
X0085030Y0109633D03*
X0118494Y0082073D03*
X0175581Y0131286D03*
X0185423Y0133255D03*
X0191329Y0121444D03*
D33*
X0192707Y0122822D01*
X0192707Y0127349D01*
X0199400Y0123609D02*
X0201762Y0123609D01*
X0199400Y0123609D02*
X0193888Y0118097D01*
X0192707Y0116916D01*
X0185423Y0116916D01*
X0186014Y0121444D02*
X0191329Y0121444D01*
X0193888Y0118097D02*
X0193888Y0115538D01*
X0185423Y0128727D02*
X0185423Y0133255D01*
X0188770Y0139160D02*
X0188770Y0140538D01*
X0199203Y0150971D01*
X0199203Y0158845D02*
X0188770Y0148412D01*
X0188770Y0147034D01*
X0183455Y0150971D02*
X0175581Y0150971D01*
X0162392Y0150971D01*
X0161801Y0151562D01*
X0161801Y0158255D02*
X0161801Y0163766D01*
X0175581Y0150971D02*
X0175581Y0141129D01*
X0174203Y0139751D01*
X0169675Y0139751D01*
X0167707Y0139751D01*
X0163770Y0135814D01*
X0163770Y0125381D01*
X0161408Y0123018D01*
X0161408Y0118659D01*
X0161408Y0103333D01*
X0158258Y0100184D01*
X0158258Y0084859D01*
X0158258Y0079121D01*
X0161801Y0075577D01*
X0153927Y0075577D01*
X0151959Y0077546D01*
X0151959Y0080105D01*
X0151959Y0084859D01*
X0148809Y0084859D02*
X0145237Y0084859D01*
X0144085Y0086010D01*
X0142933Y0090735D02*
X0151171Y0090735D01*
X0151959Y0089948D01*
X0151959Y0093885D02*
X0142933Y0093885D01*
X0132274Y0112192D02*
X0132274Y0112782D01*
X0132274Y0118885D02*
X0137589Y0118885D01*
X0138179Y0119475D01*
X0131648Y0127940D02*
X0131648Y0131286D01*
X0131648Y0127940D02*
X0124400Y0127940D01*
X0148648Y0131286D02*
X0151994Y0127940D01*
X0155896Y0127940D01*
X0161801Y0139751D02*
X0167707Y0139751D01*
X0169675Y0134633D02*
X0172234Y0134633D01*
X0175581Y0131286D01*
X0183455Y0150971D02*
X0199203Y0166719D01*
X0207077Y0158845D01*
X0207077Y0070262D01*
X0199203Y0062388D01*
X0205266Y0058294D01*
X0205266Y0046640D01*
X0178534Y0068294D02*
X0178534Y0073806D01*
X0178140Y0074199D01*
X0167707Y0048609D02*
X0163179Y0048609D01*
X0156486Y0048609D02*
X0156486Y0040735D01*
X0156486Y0038176D01*
X0159242Y0035420D01*
X0159242Y0032861D01*
X0152549Y0032861D02*
X0152549Y0024987D01*
X0124990Y0024987D02*
X0124990Y0032861D01*
X0122431Y0032861D01*
X0118494Y0036798D01*
X0091841Y0037703D02*
X0088967Y0034829D01*
X0091841Y0037703D02*
X0091841Y0039140D01*
X0113652Y0077762D02*
X0114183Y0077762D01*
X0118494Y0082073D01*
X0120089Y0101385D02*
X0113652Y0101385D01*
X0120089Y0101385D02*
X0120463Y0101759D01*
X0091841Y0110007D02*
X0085404Y0110007D01*
X0085030Y0109633D01*
D34*
X0108652Y0127349D02*
X0108652Y0146877D01*
X0102746Y0146877D01*
X0140148Y0146877D02*
X0140148Y0147034D01*
D35*
X0118494Y0147034D01*
M02*
