G75*
%MOIN*%
%OFA0B0*%
%FSLAX25Y25*%
%IPPOS*%
%LPD*%
%AMOC8*
5,1,8,0,0,1.08239X$1,22.5*
%
%ADD10R,0.03937X0.04331*%
%ADD11R,0.04331X0.03937*%
%ADD12R,0.03150X0.03150*%
%ADD13R,0.02200X0.05000*%
%ADD14R,0.05000X0.02200*%
%ADD15R,0.02323X0.02795*%
%ADD16R,0.05402X0.02795*%
%ADD17R,0.15157X0.17795*%
%ADD18R,0.12598X0.07087*%
%ADD19R,0.11024X0.11024*%
%ADD20R,0.00906X0.03150*%
%ADD21R,0.03150X0.00906*%
%ADD22R,0.07000X0.08000*%
%ADD23C,0.02559*%
D10*
X0152549Y0024987D03*
X0159242Y0024987D03*
X0159242Y0032861D03*
X0152549Y0032861D03*
X0156486Y0048609D03*
X0163179Y0048609D03*
X0161801Y0068885D03*
X0153927Y0068885D03*
X0153927Y0075577D03*
X0161801Y0075577D03*
X0178140Y0074199D03*
X0184833Y0074199D03*
X0193888Y0115538D03*
X0200581Y0115538D03*
X0188770Y0139160D03*
X0182077Y0139160D03*
X0182077Y0147034D03*
X0188770Y0147034D03*
X0169675Y0146444D03*
X0169675Y0139751D03*
X0161801Y0139751D03*
X0155896Y0134633D03*
X0155896Y0127940D03*
X0161801Y0146444D03*
X0124400Y0134633D03*
X0124400Y0127940D03*
D11*
X0132274Y0118885D03*
X0132274Y0112192D03*
X0169675Y0127940D03*
X0169675Y0134633D03*
X0185423Y0128727D03*
X0185423Y0122034D03*
X0185423Y0116916D03*
X0185423Y0110223D03*
X0185423Y0105105D03*
X0185423Y0098412D03*
X0146053Y0075577D03*
X0146053Y0068885D03*
X0156486Y0056483D03*
X0163179Y0056483D03*
X0163179Y0040735D03*
X0156486Y0040735D03*
X0143494Y0032861D03*
X0136801Y0032861D03*
X0131683Y0032861D03*
X0124990Y0032861D03*
X0124990Y0024987D03*
X0131683Y0024987D03*
X0161801Y0151562D03*
X0161801Y0158255D03*
D12*
X0161801Y0163766D03*
X0161801Y0169672D03*
X0178534Y0068294D03*
X0184439Y0068294D03*
D13*
X0170856Y0084859D03*
X0167707Y0084859D03*
X0164557Y0084859D03*
X0161408Y0084859D03*
X0158258Y0084859D03*
X0155108Y0084859D03*
X0151959Y0084859D03*
X0148809Y0084859D03*
X0148809Y0118659D03*
X0151959Y0118659D03*
X0155108Y0118659D03*
X0158258Y0118659D03*
X0161408Y0118659D03*
X0164557Y0118659D03*
X0167707Y0118659D03*
X0170856Y0118659D03*
D14*
X0176733Y0112782D03*
X0176733Y0109633D03*
X0176733Y0106483D03*
X0176733Y0103333D03*
X0176733Y0100184D03*
X0176733Y0097034D03*
X0176733Y0093885D03*
X0176733Y0090735D03*
X0142933Y0090735D03*
X0142933Y0093885D03*
X0142933Y0097034D03*
X0142933Y0100184D03*
X0142933Y0103333D03*
X0142933Y0106483D03*
X0142933Y0109633D03*
X0142933Y0112782D03*
D15*
X0090301Y0062762D03*
X0090301Y0067762D03*
X0090301Y0072762D03*
X0090301Y0077762D03*
X0090301Y0086385D03*
X0090301Y0091385D03*
X0090301Y0096385D03*
X0090301Y0101385D03*
X0115191Y0110007D03*
X0115191Y0115007D03*
X0115191Y0120007D03*
X0115191Y0125007D03*
X0115191Y0054140D03*
X0115191Y0049140D03*
X0115191Y0044140D03*
X0115191Y0039140D03*
D16*
X0091841Y0039140D03*
X0091841Y0044140D03*
X0091841Y0049140D03*
X0091841Y0054140D03*
X0113652Y0062762D03*
X0113652Y0067762D03*
X0113652Y0072762D03*
X0113652Y0077762D03*
X0113652Y0086385D03*
X0113652Y0091385D03*
X0113652Y0096385D03*
X0113652Y0101385D03*
X0091841Y0110007D03*
X0091841Y0115007D03*
X0091841Y0120007D03*
X0091841Y0125007D03*
D17*
X0106451Y0117507D03*
X0099041Y0093885D03*
X0099041Y0070262D03*
X0106451Y0046640D03*
D18*
X0126368Y0071050D03*
X0126368Y0093097D03*
D19*
X0136211Y0052546D03*
D20*
X0137195Y0044770D03*
X0139163Y0044770D03*
X0141132Y0044770D03*
X0135226Y0044770D03*
X0133258Y0044770D03*
X0131289Y0044770D03*
X0131289Y0060322D03*
X0133258Y0060322D03*
X0135226Y0060322D03*
X0137195Y0060322D03*
X0139163Y0060322D03*
X0141132Y0060322D03*
D21*
X0143986Y0057467D03*
X0143986Y0055499D03*
X0143986Y0053530D03*
X0143986Y0051562D03*
X0143986Y0049593D03*
X0143986Y0047625D03*
X0128435Y0047625D03*
X0128435Y0049593D03*
X0128435Y0051562D03*
X0128435Y0053530D03*
X0128435Y0055499D03*
X0128435Y0057467D03*
D22*
X0131648Y0131286D03*
X0148648Y0131286D03*
D23*
X0191230Y0127349D02*
X0191230Y0127349D01*
X0194184Y0127349D01*
X0194184Y0127349D01*
X0191230Y0127349D01*
X0200285Y0123609D02*
X0200285Y0123609D01*
X0203239Y0123609D01*
X0203239Y0123609D01*
X0200285Y0123609D01*
X0200285Y0131089D02*
X0200285Y0131089D01*
X0203239Y0131089D01*
X0203239Y0131089D01*
X0200285Y0131089D01*
M02*
