%
M48
M72
T01C0.01969
T02C0.03200
T03C0.04000
T04C0.04724
T05C0.13000
%
T01
X191329Y121444
X163770Y97822
X155896Y105696
X185423Y133255
X175581Y131286
X138179Y119475
X130305Y105696
X126368Y105696
X126368Y101759
X130305Y101759
X120463Y101759
X112589Y109633
X112589Y113570
X108652Y113570
X104715Y113570
X100778Y113570
X100778Y109633
X104715Y109633
X108652Y109633
X85030Y109633
X118494Y82073
X144085Y86010
X151959Y89948
X151959Y93885
X167707Y48609
X143986Y64357
X130305Y64357
X126368Y64357
X122431Y64357
X108652Y54514
X104715Y54514
X104715Y50577
X108652Y50577
X112589Y50577
X112589Y54514
X122431Y52546
X122431Y42703
X126368Y40735
X100778Y50577
X100778Y54514
X88967Y34829
T02
X199203Y166719
X199203Y158845
X199203Y150971
X199203Y143097
X199203Y101759
X199203Y93885
X199203Y86010
X199203Y78136
X199203Y70262
X199203Y62388
T03
X102746Y146877
X102746Y166877
X140148Y146877
X140148Y166877
X205266Y36640
X205266Y26640
X195266Y26640
X195266Y46640
X205266Y46640
X195266Y36640
T04
X71250Y127349
X71250Y141129
X71250Y87979
X71250Y74199
T05
X69282Y32861
X69282Y162782
X177549Y162782
X177549Y32861
M30
